<svg width="73" height="90" viewBox="0 0 73 90" fill="none" xmlns="http://www.w3.org/2000/svg">
<path d="M66.179 15.6482C59.385 5.70428 48.6175 0 36.6396 0C24.6617 0 13.8942 5.70428 7.10023 15.6482C0.339612 25.5419 -1.22144 38.0675 2.9161 49.1338C4.0228 52.1559 5.782 55.092 8.13236 57.8433L34.2706 88.8922C34.8618 89.595 35.7279 90 36.6396 90C37.5513 90 38.4174 89.5952 39.0086 88.8922L65.1395 57.8517C67.5003 55.0846 69.2573 52.1517 70.3547 49.1539C74.5006 38.0675 72.9396 25.5419 66.179 15.6482ZM64.5277 46.9499C63.6814 49.2629 62.2997 51.5496 60.4234 53.7492C60.4181 53.7544 60.4129 53.7597 60.4088 53.766L36.6396 81.9997L12.8558 53.7483C10.9805 51.5507 9.59885 49.2641 8.7442 46.929C5.32243 37.777 6.62102 27.4206 12.219 19.2273C17.8345 11.0078 26.736 6.29367 36.6396 6.29367C46.543 6.29367 55.4435 11.0076 61.0592 19.2273C66.6582 27.4206 67.9578 37.777 64.5277 46.9499Z" fill="#5F5F5F"/>
<path d="M36.6395 18.6714C27.0316 18.6714 19.214 26.5763 19.214 36.2938C19.214 46.0113 27.0306 53.9162 36.6395 53.9162C46.2485 53.9162 54.065 46.0113 54.065 36.2938C54.065 26.5773 46.2474 18.6714 36.6395 18.6714ZM36.6395 47.6224C30.4627 47.6224 25.4373 42.5402 25.4373 36.2936C25.4373 30.0471 30.4627 24.9649 36.6395 24.9649C42.8163 24.9649 47.8417 30.0471 47.8417 36.2936C47.8417 42.5402 42.8163 47.6224 36.6395 47.6224Z" fill="#5F5F5F"/>
</svg>
