<svg width="81" height="80" viewBox="0 0 81 80" fill="none" xmlns="http://www.w3.org/2000/svg">
<path d="M37.0463 55.8606C37.4999 56.3031 38.1146 56.5522 38.7562 56.5522C39.3971 56.5522 40.0118 56.3037 40.4653 55.8606L49.0969 47.4274C50.0415 46.5045 50.0415 45.0092 49.0969 44.0863C48.153 43.1641 46.6218 43.1641 45.6779 44.0863L38.7562 50.849L35.6001 47.7655C34.6556 46.8433 33.125 46.8433 32.1805 47.7655C31.2366 48.6878 31.2366 50.1837 32.1805 51.1066L37.0463 55.8606Z" fill="#5F5F5F"/>
<path d="M40.6391 68.7256C51.2222 68.7256 59.8319 60.3131 59.8319 49.9731C59.8319 39.6332 51.2222 31.2213 40.6391 31.2213C30.0553 31.2213 21.4456 39.6332 21.4456 49.9731C21.4456 60.3131 30.0559 68.7256 40.6391 68.7256ZM40.6391 35.9454C48.556 35.9454 54.9967 42.2382 54.9967 49.9731C54.9967 57.7081 48.556 64.0015 40.6391 64.0015C32.7221 64.0015 26.2808 57.7081 26.2808 49.9731C26.2808 42.2382 32.7221 35.9454 40.6391 35.9454Z" fill="#5F5F5F"/>
<path d="M72.8197 5.02991H68.4099V2.36206C68.4099 1.05774 67.3273 0 65.9923 0C64.6573 0 63.5747 1.05774 63.5747 2.36206V5.02991H58.8238V2.36206C58.8238 1.05774 57.7412 0 56.4055 0C55.0705 0 53.9879 1.05774 53.9879 2.36206V5.02991H27.2904V2.36206C27.2904 1.05774 26.2078 0 24.8722 0C23.5372 0 22.4546 1.05774 22.4546 2.36206V5.02991H17.7037V2.36206C17.7037 1.05774 16.6211 0 15.2854 0C13.9504 0 12.8678 1.05774 12.8678 2.36206V5.02991H8.45738C4.14628 5.02991 0.63855 8.45703 0.63855 12.6697V72.3608C0.63855 76.5729 4.14628 80 8.45738 80H72.8197C77.1314 80 80.6385 76.5729 80.6385 72.3608V12.6697C80.6385 8.45703 77.1308 5.02991 72.8197 5.02991ZM75.8027 72.3608C75.8027 73.9679 74.4646 75.2759 72.8197 75.2759H8.45738C6.81253 75.2759 5.47378 73.9679 5.47378 72.3608V24.6716H75.8027V72.3608ZM5.47378 12.6697C5.47378 11.062 6.81253 9.75464 8.45738 9.75464H12.8678V12.4225C12.8678 13.7268 13.9504 14.7845 15.2861 14.7845C16.6211 14.7845 17.7037 13.7268 17.7037 12.4225V9.75464H22.4546V12.4225C22.4546 13.7268 23.5372 14.7845 24.8728 14.7845C26.2078 14.7845 27.2904 13.7268 27.2904 12.4225V9.75464H53.9879V12.4225C53.9879 13.7268 55.0705 14.7845 56.4062 14.7845C57.7412 14.7845 58.8238 13.7268 58.8238 12.4225V9.75464H63.5747V12.4225C63.5747 13.7268 64.6573 14.7845 65.9923 14.7845C67.3279 14.7845 68.4105 13.7268 68.4105 12.4225V9.75464H72.8197C74.4646 9.75464 75.8033 11.062 75.8033 12.6697V19.9469H5.47378V12.6697Z" fill="#5F5F5F"/>
</svg>
