<svg width="91" height="56" viewBox="0 0 91 56" fill="none" xmlns="http://www.w3.org/2000/svg">
<path d="M73.4126 36.0608C67.7028 36.0608 63.0578 40.5334 63.0578 46.0309C63.0578 51.5274 67.703 56 73.4126 56C79.1232 56 83.7675 51.5274 83.7675 46.0309C83.7675 40.5334 79.1223 36.0608 73.4126 36.0608ZM73.4126 50.4084C70.9042 50.4084 68.8642 48.4442 68.8642 46.0299C68.8642 43.6147 70.9042 41.6506 73.4126 41.6506C75.921 41.6506 77.9609 43.6157 77.9609 46.0299C77.9611 48.4441 75.921 50.4084 73.4126 50.4084Z" fill="#5F5F5F"/>
<path d="M58.5093 0H3.54175C1.93827 0 0.63855 1.25142 0.63855 2.79548V45.8435C0.63855 47.3874 1.93827 48.6389 3.54175 48.6389H12.6386V43.0482H6.44495V5.59079H55.6061V45.8435H61.4125V2.79548C61.4127 1.25142 60.113 0 58.5093 0Z" fill="#5F5F5F"/>
<path d="M65.9608 43.0482H26.8641V48.6389H65.9608V43.0482Z" fill="#5F5F5F"/>
<path d="M19.7029 36.0608C13.9932 36.0608 9.34804 40.5334 9.34804 46.0309C9.34804 51.5274 13.9932 56 19.7029 56C25.4127 56 30.0579 51.5274 30.0579 46.0309C30.0577 40.5334 25.4127 36.0608 19.7029 36.0608ZM19.7029 50.4084C17.1946 50.4084 15.1546 48.4442 15.1546 46.0299C15.1546 43.6147 17.1946 41.6506 19.7029 41.6506C22.2113 41.6506 24.2513 43.6157 24.2513 46.0299C24.2513 48.4441 22.2103 50.4084 19.7029 50.4084Z" fill="#5F5F5F"/>
<path d="M87.7354 23.2013H58.5095V28.7919H84.832V43.0481H80.6707V48.6387H87.7352C89.3387 48.6387 90.6384 47.3883 90.6384 45.8434V25.9966C90.6386 24.4527 89.3389 23.2013 87.7354 23.2013Z" fill="#5F5F5F"/>
<path d="M78.9571 11.6044C78.4471 10.7118 77.4715 10.1565 76.4128 10.1565H58.5095V15.7471H74.6959L81.3201 27.3441L86.4084 24.6493L78.9571 11.6044Z" fill="#5F5F5F"/>
</svg>
