<svg width="105" height="104" viewBox="0 0 105 104" fill="none" xmlns="http://www.w3.org/2000/svg">
<path d="M83.2268 73.4117L104.639 52L90.8738 38.2353L81.6974 47.4118L78.6385 44.3529C83.6984 39.293 83.6984 31.0599 78.6385 26C73.5786 20.9401 65.3455 20.9401 60.2856 26L57.2268 22.9412L66.4033 13.7647L52.6385 0L31.2268 21.4118L44.9915 35.1765L54.168 26L57.2268 29.0588L44.2042 42.0814C36.9696 38.6346 28.0321 39.9006 22.0503 45.8823L20.5209 47.4118L37.3444 64.2353L34.0226 67.5572C31.6111 66.4084 28.6324 66.8297 26.6386 68.8235C24.1085 71.3536 24.1085 75.4699 26.6386 78C29.1686 80.53 33.285 80.53 35.815 78C37.8089 76.0061 38.2302 73.0275 37.0814 70.616L40.4033 67.2941L57.2268 84.1176L58.7562 82.5882C64.7379 76.6065 66.004 67.6689 62.5571 60.4344C64.8489 58.1426 72.6757 50.3158 75.5797 47.4118L78.6385 50.4706L69.4621 59.647L83.2268 73.4117ZM60.2856 13.7647L57.2268 16.8235L49.5797 9.17647L52.6385 6.11765L60.2856 13.7647ZM54.168 19.8823L51.1091 22.9412L43.4621 15.2941L46.5209 12.2353L54.168 19.8823ZM37.3444 21.4118L40.4033 18.3529L48.0503 26L44.9915 29.0588L37.3444 21.4118ZM29.6974 74.9412C28.8541 74.0978 28.854 72.7258 29.6974 71.8823C30.5407 71.039 31.9129 71.039 32.7562 71.8823C33.5996 72.7258 33.5995 74.0978 32.7562 74.9412C31.9128 75.7846 30.5408 75.7846 29.6974 74.9412ZM75.5797 29.0588C78.953 32.4321 78.953 37.9208 75.5797 41.2941L72.5209 44.3529L60.2856 32.1176L63.3444 29.0588C66.7177 25.6855 72.2065 25.6855 75.5797 29.0588ZM46.5209 48.9412L55.6974 58.1176C58.6077 61.028 60.0823 64.8381 60.123 68.6609L35.9777 44.5156C39.8005 44.5562 43.6105 46.0308 46.5209 48.9412V48.9412ZM26.7475 47.5206C27.9822 46.5961 29.3276 45.8855 30.7319 45.3874L59.2511 73.9067C58.7529 75.3109 58.0424 76.6562 57.1178 77.891L26.7475 47.5206ZM60.2856 56.5882C56.5303 52.8329 51.8087 48.1113 48.0503 44.3529C49.1243 43.279 55.7715 36.6317 57.2268 35.1765L69.4621 47.4118L60.2856 56.5882ZM75.5797 59.647L78.6385 56.5882L86.2856 64.2353L83.2268 67.2941L75.5797 59.647ZM81.6974 53.5294L84.7562 50.4706L92.4032 58.1176L89.3444 61.1765L81.6974 53.5294ZM98.5209 52L95.4621 55.0588L87.815 47.4118L90.8738 44.3529L98.5209 52Z" fill="#5F5F5F"/>
</svg>
