<svg width="81" height="64" viewBox="0 0 81 64" fill="none" xmlns="http://www.w3.org/2000/svg">
<path d="M78.2948 9.94175H76.8698C75.9011 4.30509 70.9548 0 65.0131 0H16.264C10.3223 0 5.37605 4.30509 4.4073 9.94175H2.9823C1.68792 9.94175 0.63855 10.985 0.63855 12.2718V61.6699C0.63855 62.9567 1.68792 64 2.9823 64H78.2948C79.5892 64 80.6385 62.9567 80.6385 61.6699V12.2718C80.6385 10.985 79.5892 9.94175 78.2948 9.94175ZM52.2012 19.2621V14.6019H63.1387V19.2621H52.2012ZM36.5762 19.2621V14.6019H47.5137V19.2621H36.5762ZM20.9512 19.2621V14.6019H31.8887V19.2621H20.9512ZM5.32605 19.2621V14.6019H16.2637V19.2621H5.32605ZM67.8262 14.6019H75.951V19.2621H67.8262V14.6019ZM16.264 4.66019H65.0131C68.3582 4.66019 71.1882 6.89491 72.0715 9.94175H9.20558C10.0889 6.89491 12.9189 4.66019 16.264 4.66019V4.66019ZM33.451 50.0194H14.701V45.3592H33.451V50.0194ZM14.701 54.6796H33.451V59.3398H14.701V54.6796ZM33.451 40.699H14.701V36.0388H33.451V40.699ZM66.576 50.0194H47.826V45.3592H66.576V50.0194ZM47.826 54.6796H66.576V59.3398H47.826V54.6796ZM66.576 40.699H47.826V36.0388H66.576V40.699ZM71.2635 59.3398V33.7087C71.2635 32.4219 70.2142 31.3786 68.9198 31.3786H45.4823C44.1879 31.3786 43.1385 32.4219 43.1385 33.7087V59.3398H38.1385V33.7087C38.1385 32.4219 37.0892 31.3786 35.7948 31.3786H12.3573C11.0629 31.3786 10.0135 32.4219 10.0135 33.7087V59.3398H5.32605V23.9223H75.951V59.3398H71.2635Z" fill="#5F5F5F"/>
</svg>
