<svg width="81" height="80" viewBox="0 0 81 80" fill="none" xmlns="http://www.w3.org/2000/svg">
<path d="M80.6385 17.0254C80.6385 16.0105 79.9907 15.096 78.9988 14.7103L41.6436 0.187715C40.9996 -0.0625716 40.2775 -0.0625716 39.6335 0.187715L2.2783 14.7103C1.28635 15.0959 0.63855 16.0105 0.63855 17.0254V62.9746C0.63855 63.9895 1.28619 64.904 2.2783 65.2897L39.6335 79.8123C40.2706 80.0599 40.9867 80.0653 41.6403 79.8121C41.6722 79.8021 40.2579 80.351 78.9988 65.2897C79.9909 64.9041 80.6385 63.9895 80.6385 62.9746V17.0254ZM40.6385 29.0526L26.8746 23.7017L56.62 11.4218L71.3045 17.1307L40.6385 29.0526ZM5.92807 20.9699L17.8032 25.5866V38.6115C17.8032 39.9937 18.9874 41.1144 20.448 41.1144C21.9085 41.1144 23.0927 39.9937 23.0927 38.6115V27.643L37.9938 33.4361V73.763L5.92807 61.2969V20.9699ZM40.6385 5.20862L49.8069 8.77301L20.0615 21.0528L9.97257 17.1305L40.6385 5.20862ZM43.2833 33.4361L75.349 20.9699V61.2969L43.2833 73.763V33.4361Z" fill="#5F5F5F"/>
</svg>
