<svg width="87" height="66" viewBox="0 0 87 66" fill="none" xmlns="http://www.w3.org/2000/svg">
<path d="M86.5634 32.2136L84.3871 23.5756C82.4206 15.7709 75.3846 10.3199 67.2769 10.3199H58.9238C55.6392 10.3199 52.8387 12.4101 51.7986 15.3199H48.5098V2.81995C48.5098 1.43928 47.3817 0.319946 45.9902 0.319946C44.6616 0.319946 17.0818 0.319946 15.7559 0.319946C14.3644 0.319946 13.2363 1.43928 13.2363 2.81995V15.3199H8.19727C6.80581 15.3199 5.67773 16.4393 5.67773 17.8199V30.3199H3.1582C1.76675 30.3199 0.638672 31.4393 0.638672 32.8199V47.8199C0.638672 51.9554 4.02946 55.3199 8.19727 55.3199H10.7168C10.7168 60.8339 15.2378 65.3199 20.7949 65.3199C26.352 65.3199 30.873 60.8339 30.873 55.3199C31.941 55.3199 55.3385 55.3199 56.4043 55.3199C56.4043 60.8339 60.9253 65.3199 66.4824 65.3199C72.0395 65.3199 76.5605 60.8339 76.5605 55.3199H79.0801C83.2479 55.3199 86.6387 51.9554 86.6387 47.8199V32.8199C86.6387 32.6156 86.6135 32.4119 86.5634 32.2136ZM33.3926 5.31995H43.4707V15.3199C42.4026 15.3199 34.4607 15.3199 33.3926 15.3199V5.31995ZM35.9121 20.3199V30.3199H25.834V20.3199H30.873H35.9121ZM18.2754 5.31995H28.3535V15.3199C27.2854 15.3199 19.3435 15.3199 18.2754 15.3199V5.31995ZM10.7168 20.3199C11.7849 20.3199 19.7268 20.3199 20.7949 20.3199V30.3199H10.7168V20.3199ZM20.7949 60.3199C18.0164 60.3199 15.7559 58.0769 15.7559 55.3199C15.7559 52.5629 18.0164 50.3199 20.7949 50.3199C23.5735 50.3199 25.834 52.5629 25.834 55.3199C25.834 58.0769 23.5735 60.3199 20.7949 60.3199ZM51.3652 50.3199H29.5172C27.7718 47.3339 24.5169 45.3199 20.7949 45.3199C17.0729 45.3199 13.818 47.3339 12.0726 50.3199H8.19727C6.808 50.3199 5.67773 49.1984 5.67773 47.8199V35.3199H51.3652V50.3199ZM51.3652 30.3199H40.9512V20.3199H51.3652V30.3199ZM66.4824 60.3199C63.7039 60.3199 61.4434 58.0769 61.4434 55.3199C61.4434 52.5629 63.7039 50.3199 66.4824 50.3199C69.261 50.3199 71.5215 52.5629 71.5215 55.3199C71.5215 58.0769 69.261 60.3199 66.4824 60.3199ZM81.5996 47.8199C81.5996 49.1984 80.4693 50.3199 79.0801 50.3199H75.2047C73.4593 47.3339 70.2044 45.3199 66.4824 45.3199C62.7604 45.3199 59.5055 47.3339 57.7601 50.3199H56.4043V17.8199C56.4043 16.4414 57.5346 15.3199 58.9238 15.3199H61.4434V32.8199C61.4434 36.9554 64.8341 40.3199 69.002 40.3199C70.1463 40.3199 80.4337 40.3199 81.5996 40.3199V47.8199ZM81.5996 35.3199H78.1176L78.814 33.9379C79.4363 32.7029 78.9319 31.2013 77.6873 30.5838C76.4431 29.9664 74.9294 30.4668 74.3071 31.7018L72.4839 35.3199H69.002C67.6127 35.3199 66.4824 34.1984 66.4824 32.8199V15.3199H67.2769C73.0681 15.3199 78.0938 19.2134 79.4985 24.7883L81.5996 33.1278V35.3199Z" fill="#5F5F5F"/>
</svg>
