<svg width="81" height="80" viewBox="0 0 81 80" fill="none" xmlns="http://www.w3.org/2000/svg">
<path d="M2.98242 61.25H5.07349C6.28809 61.25 7.48254 61.5649 8.53784 62.1631C28.5726 79.1168 27.3654 78.1439 27.6748 78.3301C29.4961 79.4226 31.5804 80 33.7039 80H59.2324C63.1094 80 66.2637 76.8457 66.2637 72.9687C66.2637 69.7308 64.0627 66.9983 61.0793 66.1853C61.3986 65.3827 61.5762 64.5087 61.5762 63.5937C61.5762 60.3558 59.3752 57.6233 56.3918 56.8103C56.7111 56.0077 56.8887 55.1337 56.8887 54.2187C56.8887 50.3418 53.7344 47.1875 49.8574 47.1875H34.0194L28.0764 41.2451C25.8633 39.0314 22.9202 37.8125 19.7903 37.8125H2.98242C1.68787 37.8125 0.638672 38.8617 0.638672 40.1562V58.9062C0.638672 60.2008 1.68787 61.25 2.98242 61.25ZM54.5449 65.9375H40.483C39.858 65.9375 39.2703 65.6946 38.8278 65.2533C39.5382 64.9133 40.1931 64.4513 40.7662 63.8776C41.5206 63.1232 42.0822 62.2272 42.427 61.25H54.5449C55.837 61.25 56.8887 62.3016 56.8887 63.5937C56.8887 64.8865 55.837 65.9375 54.5449 65.9375V65.9375ZM49.8574 51.875C51.1495 51.875 52.2012 52.9266 52.2012 54.2187C52.2012 55.5109 51.1495 56.5625 49.8574 56.5625H42.427C42.0822 55.5853 41.5206 54.6893 40.7662 53.9349L38.7069 51.875H49.8574ZM5.32617 42.5H19.7903C21.6683 42.5 23.4341 43.2312 24.7616 44.5593L37.452 57.2491C37.8945 57.6923 38.1387 58.2806 38.1387 58.9062C38.1387 59.5319 37.8945 60.1202 37.452 60.5634C36.5383 61.4764 35.0515 61.4764 34.1378 60.5634L26.1361 52.5616C25.2212 51.6461 23.7368 51.6461 22.8219 52.5616C21.9064 53.4766 21.9064 54.9603 22.8219 55.8759L35.5111 68.5657C36.8362 69.8907 38.5977 70.6219 40.472 70.6244C40.4739 70.6244 40.4757 70.625 40.4775 70.625H59.2324C60.5245 70.625 61.5762 71.676 61.5762 72.9687C61.5762 74.2609 60.5245 75.3125 59.2324 75.3125H33.7039C32.4893 75.3125 31.2948 74.9969 30.2395 74.3994C10.2047 57.4457 11.412 58.4186 11.1025 58.2324C9.35388 57.1832 7.3623 56.6095 5.32617 56.5655V42.5Z" fill="#5F5F5F"/>
<path d="M78.2949 18.125H76.2039C74.9825 18.125 73.7814 17.8064 72.7212 17.2021L53.8772 1.84448C52.8463 1.00525 50.2224 0 47.5735 0H22.0449C18.0367 0 15.0137 2.82104 15.0137 6.5625C15.0137 9.78821 17.1768 12.428 20.1925 13.2043C19.8763 14.0027 19.7012 14.8718 19.7012 15.7812C19.7012 19.0192 21.9021 21.7517 24.8855 22.5647C24.5663 23.3673 24.3887 24.2413 24.3887 25.1562C24.3887 29.0332 27.543 32.1875 31.4199 32.1875H47.2579L53.2009 38.1299C55.4141 40.3436 58.3572 41.5625 61.4871 41.5625H78.2949C79.5895 41.5625 80.6387 40.5133 80.6387 39.2188V20.4688C80.6387 19.1742 79.5895 18.125 78.2949 18.125ZM26.7324 13.4375H40.7943C41.4193 13.4375 42.0071 13.6804 42.4496 14.1217C41.7391 14.4617 41.0842 14.9237 40.5111 15.4974C39.7567 16.2518 39.1952 17.1478 38.8503 18.125H26.7324C25.4403 18.125 24.3887 17.0734 24.3887 15.7812C24.3887 14.4885 25.4403 13.4375 26.7324 13.4375V13.4375ZM31.4199 27.5C30.1278 27.5 29.0762 26.4484 29.0762 25.1562C29.0762 23.8641 30.1278 22.8125 31.4199 22.8125H38.8503C39.1952 23.7897 39.7567 24.6857 40.5111 25.4401L42.5704 27.5H31.4199ZM75.9512 36.875H61.4871C59.609 36.875 57.8433 36.1438 56.5157 34.8157C55.0259 33.3264 45.104 23.4039 43.8253 22.1259C42.9092 21.2091 42.9092 19.7284 43.8253 18.8116C44.7421 17.8955 46.2228 17.8955 47.1395 18.8116L55.1412 26.8134C56.0562 27.7289 57.5405 27.7289 58.4554 26.8134C59.371 25.8984 59.371 24.4147 58.4554 23.4991L45.7662 10.8093C44.4418 9.48486 42.6815 8.75427 40.8083 8.75061C40.8059 8.75061 40.8041 8.75 40.8016 8.75C40.8016 8.75 24.5687 8.75 22.0449 8.75C20.7089 8.75 19.7012 7.80945 19.7012 6.5625C19.7012 5.17883 20.9634 4.6875 22.0449 4.6875H47.5735C48.8137 4.6875 50.0143 5 51.0562 5.59265C71.1215 21.9342 69.9014 20.9784 70.1748 21.1426C71.9235 22.1918 73.915 22.7661 75.9512 22.8101V36.875Z" fill="#5F5F5F"/>
</svg>
