<svg width="974" height="535" viewBox="0 0 974 535" fill="none" xmlns="http://www.w3.org/2000/svg">
<path d="M814.153 152.047C741.784 165.353 710.527 138.929 648.138 145.959C586.691 152.863 560.518 171.441 503.339 175.333C442.959 179.413 406.492 154.809 324.834 150.666C255.918 147.151 206.27 160.018 134.843 142.883C59.9016 124.87 6.29997 70.3265 -93.9363 66.9999V448.676H973.577V119.472C891.668 103.278 867.378 142.256 814.153 152.047Z" fill="url(#paint0_linear_63_711)"/>
<path d="M295.271 197.552V244.249H307.447V224.729H359.103V339.59H242.673V196.987L258.804 192.782L295.271 197.552Z" fill="#BCE5F7"/>
<path d="M-23.2634 172.257H35.9243V323.271H-23.2634V172.257Z" fill="#BCE5F7"/>
<path d="M-43.0974 259.062H-1.29557L11.383 237.471H-30.4187L-43.0974 259.062Z" fill="#367AD1"/>
<path d="M11.383 237.471L23.9988 259.062V344.799H-1.29561V259.062L11.383 237.471Z" fill="#F2FBFC"/>
<path d="M329.792 289.126H369.459L381.51 270.799H341.843L329.792 289.126Z" fill="#77C4E6"/>
<path d="M329.792 289.126H369.459V339.59H329.792V289.126Z" fill="#F2FBFC"/>
<path d="M381.51 270.799L393.561 289.126V339.59H381.51H369.459V289.126L381.51 270.799Z" fill="#BCE5F7"/>
<path d="M242.673 339.59H258.804V192.782L242.673 196.987V339.59Z" fill="#8ACDE6"/>
<path d="M307.447 227.616H318.87V244.249H307.447V227.616Z" fill="#8ACDE6"/>
<path d="M221.082 270.799H258.804L270.227 253.413H232.505L221.082 270.799Z" fill="#367AD1"/>
<path d="M221.082 270.799H258.804V314.17H221.082V270.799Z" fill="#F2FBFC"/>
<path d="M127.129 323.266H117.275L117.275 208.782H127.129L127.129 323.266Z" fill="#BCE5F7"/>
<path d="M127.185 194.853H201.185V323.208H127.185V194.853Z" fill="#BCE5F7"/>
<path d="M117.268 117.777L73.96 112.128L58.0804 117.275V323.208H117.268V117.777Z" fill="#BCE5F7"/>
<path d="M58.0804 323.208H73.96V112.128L58.0804 117.275V323.208Z" fill="#8ACDE6"/>
<path d="M117.268 239.479H86.5759L73.3323 221.905H104.025L117.268 239.479Z" fill="#367AD1"/>
<path d="M-93.9373 448.676V300.424C-67.7013 298.855 -35.0633 314.421 2.65863 314.421C46.5316 314.421 67.4325 297.349 111.305 285.361C148.776 275.067 187.44 276.385 226.982 286.867C263.009 296.407 303.242 313.731 339.395 324.965C376.928 336.64 416.282 336.64 454.695 331.305C493.17 325.97 520.912 317.622 560.894 317.622C589.829 317.622 612.487 321.388 631.191 326.723C649.707 331.995 667.532 339.841 686.173 344.611C724.209 354.34 758.667 351.076 797.017 345.678C836.245 340.155 871.77 328.229 919.158 328.669C942.946 328.857 965.416 333.313 973.45 335.636V448.676H-93.9373V448.676Z" fill="url(#paint1_linear_63_711)"/>
<path d="M973.576 493.051V534.288C944.955 535.669 898.383 525.375 875.097 521.044C851.686 516.651 827.709 514.768 803.796 515.647C779.505 516.525 755.403 519.35 731.176 520.542C706.823 521.735 682.282 520.731 658.18 517.467C634.517 514.266 610.98 509.935 586.941 509.621C562.651 509.307 538.549 512.697 514.385 514.391C490.094 516.086 465.616 515.207 441.577 511.316C429.777 509.433 418.04 506.922 406.052 506.106C393.938 505.29 381.95 506.734 369.899 507.738C358.287 508.742 346.55 508.805 335.001 506.985C318.933 504.474 301.798 493.616 300.794 492.988H973.576V493.051Z" fill="#367AD1"/>
<path d="M47.7869 208.724H86.5759V344.737H47.7869V208.724Z" fill="#F2FBFC"/>
<path d="M24.0615 208.724H47.7869V344.737H24.0615V208.724Z" fill="#BCE5F7"/>
<path d="M-93.9373 341.912H86.5759V344.799H-93.9373V341.912Z" fill="white"/>
<path d="M0.525513 349.444H-42.0921L-58.1601 325.028H-15.4797L0.525513 349.444Z" fill="#BCE5F7"/>
<path d="M0.579914 407.931H-42.1005L-42.1005 349.497H0.579914L0.579914 407.931Z" fill="#F2FBFC"/>
<path d="M-93.9373 325.028C-81.2587 327.1 -74.6683 352.206 -72.8481 359.549C-70.5885 368.525 -66.0694 398.652 -55.8387 399.593C-49.2483 400.221 -45.4824 392.313 -36.8836 393.945C-23.9539 396.392 -23.3262 416.477 -15.355 434.366C-11.8402 442.274 -3.86896 453.132 2.78417 451.814C10.0022 450.371 12.45 443.09 20.2329 442.086C29.4594 440.956 42.8285 454.89 52.6826 467.819H-93.749C-93.8117 467.694 -93.9373 467.568 -94 467.506V325.028H-93.9373Z" fill="#1E2859"/>
<path d="M67.3696 344.799C65.6122 342.854 64.1686 339.213 66.3026 336.64C68.1228 334.443 73.96 334.882 76.0312 332.748C77.7887 330.865 75.4664 325.719 77.5376 322.58C79.3578 319.819 84.2535 320.697 91.7226 324.401C95.6768 326.346 98.4385 328.48 101.953 327.664C104.338 327.162 104.276 324.401 106.661 323.271C110.992 321.137 117.331 326.848 120.908 324.275C124.486 321.764 121.599 314.986 125.428 312.161C129.947 308.898 137.479 314.17 140.68 317.559C144.822 321.89 146.454 326.911 150.534 330.803C155.618 335.636 158.756 329.547 164.028 331.116C166.915 331.995 168.673 337.016 171.874 336.326C174.196 335.824 174.51 331.744 176.016 330.301C178.15 328.355 179.531 328.606 182.23 329.798C185.494 331.242 195.536 339.276 195.725 344.737H67.3696V344.799Z" fill="#367AD1"/>
<path d="M5.232 344.799C4.16499 341.222 3.72567 332.999 7.55436 330.677C12.1362 327.978 20.1074 336.577 26.1956 337.142C31.6562 337.707 34.7318 333.69 40.1296 335.259C43.1423 336.138 49.9209 338.774 55.4443 344.737H5.232V344.799Z" fill="#367AD1"/>
<path d="M47.7339 211.64H24.0085V208.753H47.7339V211.64Z" fill="#F2FBFC"/>
<path d="M254.912 448.676C256.231 440.768 260.812 428.779 276.88 427.963C290.751 427.273 315.042 437.127 324.268 433.863C333.746 430.537 331.361 419.49 340.462 413.025C348.307 407.502 370.526 415.599 373.162 411.205C375.422 407.376 367.388 399.405 368.204 393.756C370.15 379.446 390.548 387.354 399.963 392.564C406.114 395.953 412.956 400.661 420.174 401.288C427.768 401.916 434.484 397.334 438.501 395.702C454.381 389.174 469.633 398.401 481.558 405.556C497.187 414.971 514.322 421.687 533.277 419.929C543.131 418.988 562.651 415.975 574.576 417.544C597.611 420.494 618.198 438.947 624.851 448.676H254.912V448.676Z" fill="white"/>
<path d="M78.6047 386.915C91.095 384.279 134.591 376.119 159.949 371.475C185.62 366.83 223.091 359.298 233.698 356.474C256.293 350.385 271.169 346.557 271.169 341.096C271.169 335.761 257.549 331.556 253.72 330.112C245.121 326.786 236.334 324.15 227.484 321.576C211.667 316.994 185.18 310.09 169.363 305.508C162.647 303.563 150.408 299.546 142.876 295.78C136.223 292.453 133.901 289.503 133.901 287.118C133.901 283.101 139.55 281.281 143.504 280.339C146.642 279.586 153.986 278.456 160.074 277.954C162.648 278.205 164.844 278.456 167.48 278.896C162.271 279.398 155.869 280.528 152.166 281.155C148.525 281.783 138.608 283.666 138.608 286.804C138.608 290.382 151.852 294.964 158.317 297.223C164.844 299.483 175.452 302.182 190.076 306.01C208.341 310.781 229.744 316.304 235.267 317.873C247.695 321.451 282.467 329.736 282.467 341.159C282.467 350.888 267.905 356.097 250.142 361.558C231.501 367.269 213.111 371.475 193.34 375.366C172.188 379.446 148.337 383.4 120.657 388.61C106.912 391.183 53.3103 399.468 53.122 410.64C52.9337 421.059 104.339 431.541 128.001 436.374C154.865 441.835 197.984 448.739 255.603 448.739C397.829 448.739 859.531 448.739 973.639 448.739V467.882H296.4C188.632 467.882 130.763 452.944 108.669 448.739C106.096 448.237 103.899 447.797 101.953 447.358C78.4164 442.086 33.9158 427.336 33.9158 409.887C33.9158 398.087 62.0974 390.367 78.6047 386.915ZM45.6529 410.326C45.6529 410.264 45.6529 410.264 45.6529 410.201C45.6529 410.201 45.6529 410.264 45.6529 410.326Z" fill="white"/>
<path d="M359.03 227.615H318.861V224.728H359.03V227.615Z" fill="#F2FBFC"/>
<path d="M745.361 92.8592C749.315 89.1561 769.337 90.0975 787.853 83.9465C803.921 78.6115 817.353 66.1212 829.906 59.5936C854.824 46.6639 873.026 51.999 894.052 44.5299C912.442 39.0066 924.556 22.311 939.871 10.9504C949.348 3.92073 962.153 -0.0334908 973.576 0.217571V75.9126C959.077 86.2061 941.252 93.2358 925.686 95.1815C904.973 97.7549 871.206 93.3614 850.43 97.2528C821.495 102.588 796.013 115.392 769.526 111.94C759.044 110.496 737.013 100.768 745.361 92.8592Z" fill="#F2FBFC"/>
<path d="M638.095 122.798C645.376 105.538 690.19 81.4987 711.028 88.905C733.938 97.0017 716.489 120.602 699.291 118.53C665.272 114.388 659.937 123.363 647.259 128.698C641.422 131.146 635.333 129.389 638.095 122.798Z" fill="#F2FBFC"/>
<path d="M0.650145 136.795C3.60012 144.076 -4.99874 146.084 -12.8444 143.448C-29.6655 137.736 -35.8165 127.882 -83.3927 132.966C-87.0331 133.343 -90.6107 133.092 -93.9373 132.339V100.014C-63.6216 92.9848 -6.94446 118.216 0.650145 136.795Z" fill="#F2FBFC"/>
<path d="M309.205 130.267C289.308 133.594 271.671 125.121 250.77 122.108C235.769 119.974 206.709 125.874 192.147 121.92C163.401 114.199 166.916 85.4529 130.825 79.6157C95.8652 73.9041 77.5377 63.7361 86.2621 49.1118C94.4215 35.4917 162.899 34.9896 192.398 62.4808C201.813 71.2679 210.161 81.9381 223.216 85.3901C238.029 90.1603 251.963 85.7667 269.223 94.3656C277.947 98.6964 286.735 107.295 298.095 110.685C311.276 114.576 326.088 113.258 328.662 115.831C334.185 121.229 317.05 128.949 309.205 130.267Z" fill="#F2FBFC"/>
<path d="M17.534 60.5978C11.8224 50.7437 43.2678 39.3204 56.6368 47.5426C72.4537 57.2713 62.5368 72.8998 47.6614 66.9999C26.635 58.6521 20.0447 64.8031 17.534 60.5978Z" fill="#F2FBFC"/>
<path d="M268.031 275.193H272.361V283.478H268.031V275.193Z" fill="#7AC3DE"/>
<path d="M268.031 289.942H272.361V298.227H268.031V289.942Z" fill="#7AC3DE"/>
<path d="M889.596 448.676C887.399 442.525 889.533 429.595 893.864 423.256C900.078 414.092 912.191 412.209 921.041 416.979C934.096 424.072 924.242 396.895 932.465 392.878C941.252 388.672 948.783 402.292 953.491 398.401C958.387 394.321 951.608 378.128 954.997 367.081C958.449 355.658 967.425 349.005 973.576 350.511V448.739H889.596V448.676Z" fill="#1E2859"/>
<path d="M379.314 296.909H383.644V305.194H379.314V296.909Z" fill="#7AC3DE"/>
<path d="M879.114 151.357C902.337 144.515 924.619 152.11 949.913 152.675C956.315 152.8 964.663 151.545 973.513 149.913V191.526C960.583 191.84 947.779 194.163 931.837 188.514C920.853 184.622 909.116 175.584 895.056 173.199C878.8 170.437 861.289 174.14 857.836 171.441C850.681 165.73 870.013 154.055 879.114 151.357Z" fill="#F2FBFC"/>
<path d="M164.154 270.799C141.553 270.799 123.231 268.804 123.231 266.343C123.231 263.881 141.553 261.886 164.154 261.886C186.755 261.886 205.077 263.881 205.077 266.343C205.077 268.804 186.755 270.799 164.154 270.799Z" fill="#1E2859"/>
<path d="M190.955 231.32C196.29 225.106 199.554 217.072 199.554 208.285C199.554 188.765 183.737 172.948 164.217 172.948C144.697 172.948 128.88 188.765 128.88 208.285C128.88 217.072 132.144 225.169 137.479 231.32L164.279 266.28L190.955 231.32Z" fill="url(#paint2_linear_63_711)"/>
<path d="M141.359 217.715C136.146 205.128 142.122 190.699 154.709 185.485C167.295 180.272 181.725 186.249 186.938 198.835C192.152 211.421 186.175 225.851 173.589 231.064C161.002 236.278 146.573 230.301 141.359 217.715Z" fill="white"/>
<path d="M159.195 220.147H176.958V204.205L168.108 193.221L159.195 204.205V220.147Z" fill="#367AD1"/>
<path d="M150.785 204.205H159.195V220.147H150.785V204.205Z" fill="#1E2859"/>
<path d="M166.351 209.979H169.803V218.641H166.351V209.979Z" fill="white"/>
<path d="M771.032 438.445C786.096 438.445 799.465 450.684 800.846 465.748C802.226 480.812 791.117 493.051 776.053 493.051H762.057L757.035 438.445H771.032Z" fill="#2E2E2D"/>
<path d="M741.478 484.615C730.073 473.72 728.903 456.434 738.864 446.007C748.826 435.579 766.147 435.959 777.552 446.854C788.957 457.75 790.127 475.035 780.165 485.463C770.203 495.89 752.883 495.51 741.478 484.615Z" fill="#2E2E2D"/>
<path d="M747.98 477.804C740.686 470.835 739.936 459.781 746.306 453.114C752.676 446.446 763.753 446.69 771.047 453.659C778.341 460.627 779.09 471.681 772.721 478.348C766.351 485.016 755.274 484.772 747.98 477.804Z" fill="#575756"/>
<path d="M726.218 438.445C741.281 438.445 754.65 450.684 756.031 465.748C757.412 480.812 746.302 493.051 731.239 493.051H717.305L712.284 438.445H726.218Z" fill="#2E2E2D"/>
<path d="M556.312 438.445C571.375 438.445 584.744 450.684 586.125 465.748C587.506 480.812 576.397 493.051 561.333 493.051H547.399L542.378 438.445H556.312Z" fill="#2E2E2D"/>
<path d="M526.747 484.619C515.342 473.723 514.172 456.438 524.134 446.01C534.095 435.583 551.416 435.962 562.821 446.858C574.226 457.753 575.396 475.039 565.435 485.466C555.473 495.894 538.152 495.514 526.747 484.619Z" fill="#2E2E2D"/>
<path d="M533.251 477.815C525.957 470.847 525.208 459.793 531.577 453.125C537.947 446.458 549.024 446.702 556.318 453.67C563.612 460.638 564.361 471.692 557.992 478.36C551.622 485.027 540.545 484.783 533.251 477.815Z" fill="#575756"/>
<path d="M511.497 438.445C526.561 438.445 539.93 450.684 541.311 465.748C542.692 480.812 531.582 493.051 516.518 493.051H502.585L497.563 438.445H511.497Z" fill="#2E2E2D"/>
<path d="M443.962 404.175L449.109 397.711C451.619 394.509 453.439 390.869 454.444 386.852L482.625 275.569C484.257 269.042 490.032 264.648 496.936 264.648H553.048L571.438 465.497H453.251C448.983 465.497 445.154 462.045 444.778 457.714L440.886 414.908C440.51 410.954 441.64 407.125 443.962 404.175Z" fill="#FF9B2B"/>
<path d="M533.214 465.497L532.398 456.71C530.703 438.382 514.51 423.507 496.183 423.507C477.855 423.507 464.361 438.382 466.055 456.71L466.871 465.497H533.214Z" fill="#182047"/>
<path d="M532.398 456.71L533.214 465.497H500.011L497.563 438.445H511.497C517.837 438.445 523.862 440.642 528.883 444.282C530.766 448.048 532.022 452.254 532.398 456.71Z" fill="#333332"/>
<path d="M481.987 484.636C470.582 473.74 469.412 456.455 479.373 446.027C489.335 435.6 506.656 435.98 518.061 446.875C529.466 457.771 530.636 475.056 520.674 485.484C510.713 495.911 493.392 495.531 481.987 484.636Z" fill="#575756"/>
<path d="M488.491 477.826C481.196 470.858 480.447 459.804 486.817 453.136C493.186 446.469 504.263 446.713 511.557 453.681C518.851 460.649 519.601 471.703 513.231 478.371C506.861 485.038 495.785 484.795 488.491 477.826Z" fill="#B2B2B2"/>
<path d="M506.476 456.145C506.915 457.526 507.167 458.969 507.229 460.476C507.355 467.38 502.396 472.966 495.555 473.531C494.174 473.657 492.793 473.531 491.475 473.28C490.345 473.029 489.655 474.41 490.534 475.226C493.421 478.05 497.312 479.87 501.455 479.808C509.238 479.808 515.012 473.343 514.259 465.56C513.82 461.292 511.56 457.526 508.359 454.952C507.355 454.199 506.099 455.015 506.476 456.145Z" fill="#EDEDED"/>
<path d="M539.331 288.517L554.058 449.146L553.12 449.232L538.393 288.602L539.331 288.517Z" fill="#182047"/>
<path d="M520.661 391.559H539.051L538.612 386.601H520.222L520.661 391.559ZM538.047 390.681H521.477L521.163 387.605H537.733L538.047 390.681Z" fill="#30358C"/>
<path d="M467.624 417.419H495.618V416.477H467.624C466.055 416.477 464.674 415.222 464.549 413.653L462.478 391.057L461.599 391.12L463.67 413.716C463.858 415.787 465.616 417.419 467.624 417.419Z" fill="#182047"/>
<path d="M442.016 433.11H474.842V434.052H442.016V433.11Z" fill="#182047"/>
<path d="M540.432 361.181L534.218 293.018C533.967 290.507 531.77 288.499 529.26 288.499H488.149C486.14 288.499 484.508 289.754 484.132 291.7L463.67 383.902C462.917 387.166 466.055 390.367 469.382 389.677L527.816 378.316C535.85 376.747 541.185 369.529 540.432 361.181Z" fill="#182047"/>
<path d="M531.017 308.019H515.954C513.82 308.019 512.125 309.525 511.874 311.596L503.526 376.559C503.149 379.76 506.162 382.584 509.3 381.956L527.753 378.379C535.85 376.81 541.122 369.592 540.369 361.244L535.913 312.601C535.725 310.027 533.528 308.019 531.017 308.019Z" fill="#367AD1"/>
<path d="M463.164 383.806L464.083 384.01L462.478 391.24L461.558 391.036L463.164 383.806Z" fill="#30358C"/>
<path d="M468.503 390.241C468.817 390.241 469.131 390.241 469.445 390.179L527.879 378.818L527.691 377.939L469.256 389.3C467.875 389.551 466.369 389.049 465.302 387.982C464.235 386.915 463.796 385.409 464.11 384.028L484.571 291.825C484.948 290.131 486.391 289.001 488.149 289.001V288.059C485.952 288.059 484.132 289.503 483.692 291.574L463.231 383.777C462.854 385.471 463.419 387.229 464.674 388.547C465.679 389.677 467.059 390.241 468.503 390.241Z" fill="#182047"/>
<path d="M477.29 391.12H470.009C468.942 391.12 468.001 390.241 467.875 389.174L465.49 363.127C465.365 362.06 466.181 361.181 467.248 361.181H474.591C475.658 361.181 476.6 362.06 476.725 363.127L479.11 389.174C479.173 390.241 478.357 391.12 477.29 391.12Z" fill="#FFB35C"/>
<path d="M452.31 452.316H444.338L443.585 444.157H451.556L452.31 452.316Z" fill="#F2FBFC"/>
<path d="M449.548 406.56L449.171 409.761C448.92 412.021 448.858 414.281 449.046 416.603L450.427 431.604C450.552 432.671 449.736 433.55 448.669 433.55H442.581L440.886 414.908C440.51 410.954 441.64 407.188 443.962 404.238H447.477C448.669 404.175 449.736 405.368 449.548 406.56Z" fill="#F2FBFC"/>
<path d="M512.878 366.767C511.874 362.248 509.049 357.729 508.233 353.084C507.606 349.507 507.417 344.799 510.116 342.163C513.945 338.397 522.167 336.201 524.113 335.636C528.569 334.318 534.532 333.753 537.859 333.753L540.369 361.181C541.122 369.592 535.85 376.747 527.753 378.316L513.631 381.078C513.757 374.236 513.882 371.286 512.878 366.767Z" fill="white"/>
<path d="M510.995 319.693C511.309 317.371 512.376 315.111 514.824 314.421C517.146 313.73 519.908 313.982 521.728 315.049C526.561 318.061 525.682 324.024 527.502 328.794C528.005 330.175 529.009 332.058 529.574 333.439C530.013 334.443 530.201 335.071 529.511 336.075C528.193 338.021 525.62 338.083 523.674 338.021C522.418 338.021 520.661 337.393 520.284 336.452C519.72 335.071 518.966 333.125 518.339 331.493C515.954 331.43 512.502 331.368 511.56 328.731C510.619 326.095 510.619 322.518 510.995 319.693Z" fill="#FEC1B5"/>
<path d="M513.82 313.919C516.079 313.228 518.778 312.915 521.163 313.417C523.234 313.856 524.678 315.551 525.619 317.371C526.184 318.501 526.373 319.819 526.624 321.074C526.875 322.58 527.816 325.091 526.938 326.346C525.996 327.727 523.799 327.978 522.105 327.727C521.351 327.602 520.598 327.288 520.033 326.786C519.28 326.158 519.155 325.907 518.841 325.091C518.401 324.087 517.334 324.463 516.518 323.899C515.954 323.459 515.64 322.706 515.514 322.016C515.389 321.325 515.263 320.76 514.635 320.258C514.322 320.007 513.757 319.944 513.38 319.756C512.564 319.379 511.811 318.94 511.372 318.187C510.242 316.429 512.25 314.421 513.82 313.919Z" fill="#1E2859"/>
<path d="M517.272 324.024C516.958 325.217 517.334 326.346 518.025 326.535C518.715 326.723 519.531 325.907 519.845 324.777C520.159 323.585 519.782 322.455 519.092 322.267C518.401 322.078 517.585 322.894 517.272 324.024Z" fill="#FEC1B5"/>
<path d="M511.748 314.358C511.937 312.224 514.385 311.22 515.263 310.843C517.837 309.902 520.787 310.153 523.297 311.094C526.059 312.161 527.691 314.986 527.754 318.124C527.879 322.016 524.741 323.02 521.54 322.518C519.343 322.204 517.648 321.2 515.891 319.819C515.2 319.317 511.435 317.245 511.748 314.358Z" fill="#FF9B2B"/>
<path d="M506.476 312.412C506.602 311.345 507.857 309.965 509.238 309.776C511.246 309.462 512.878 310.278 514.761 310.969C514.949 311.032 514.887 311.157 514.698 311.22C512.062 312.224 513.004 315.613 514.008 317.873C514.133 318.124 513.945 318.375 513.757 318.312C511.937 317.622 510.367 317.12 508.736 316.116C507.292 315.237 506.225 314.358 506.476 312.412Z" fill="#FFB35C"/>
<path d="M510.305 359.549C510.43 358.922 510.619 358.231 511.121 357.603C512.25 355.909 516.895 350.825 518.088 354.905C518.527 356.285 517.397 363.503 517.083 365.7C516.707 368.211 516.581 372.353 518.527 373.797C519.594 374.613 521.477 374.174 522.732 373.86C523.297 373.734 525.494 372.604 526.059 372.981C527.816 374.048 523.172 376.747 521.351 377.186C519.531 377.563 515.577 377.814 513.757 376.433C513.757 372.604 513.631 370.157 512.878 366.83C512.313 364.382 511.309 361.997 510.305 359.549Z" fill="#DADADA"/>
<path d="M512.062 339.966C515.703 336.389 522.921 339.276 525.619 342.163C528.632 345.364 531.206 350.134 532.084 354.653C532.775 354.402 533.591 354.089 534.281 353.775C534.03 351.013 533.591 344.172 533.528 342.728C533.402 340.28 533.151 336.514 532.461 334.004C532.398 333.815 532.524 333.753 532.649 333.753C533.277 333.627 534.093 333.564 534.595 333.564C534.783 333.564 534.846 333.753 534.909 333.815C535.599 335.196 536.039 339.025 536.101 340.531C536.29 343.544 536.666 349.758 537.231 352.708C537.545 356.16 539.365 362.876 540.244 365.386C539.24 371.914 534.469 377.061 527.753 378.379L513.631 381.14C513.631 381.14 512.69 377.186 512.878 375.994C513.066 374.613 515.326 375.805 516.079 376.056C520.787 377.626 524.992 375.178 527.189 371.161C528.82 368.274 530.013 363.064 529.323 356.411C528.758 352.394 527.502 350.072 526.875 348.879C524.49 344.423 520.661 341.033 517.46 340.092C515.263 339.464 513.631 339.715 512.753 340.155C512.376 340.28 511.309 340.72 512.062 339.966Z" fill="#FF9B2B"/>
<path d="M476.725 363.252C479.738 364.759 482.939 366.265 486.642 368.085C489.843 369.654 492.228 368.274 493.86 366.077C496.245 362.939 503.652 350.26 507.166 345.615C509.991 341.912 511.121 340.217 515.2 341.096C517.083 341.473 519.28 344.36 519.468 348C519.531 350.009 518.715 355.658 516.518 358.922C512.627 364.633 503.087 373.044 498.944 376.119C495.367 378.818 492.793 380.073 487.709 377.751C483.127 375.68 480.554 373.483 477.478 371.161L476.725 363.252Z" fill="white"/>
<path d="M555.182 288.059L555.307 289.001H477.039V288.059H555.182Z" fill="#182047"/>
<path d="M536.164 448.676H569.869L569.995 449.617H535.474L535.411 449.241C531.017 431.353 513.506 417.356 495.618 417.356V416.415C513.757 416.477 531.519 430.6 536.164 448.676Z" fill="#182047"/>
<path d="M771.911 216.695H548.654L569.932 448.676H793.125L771.911 216.695Z" fill="white"/>
<path d="M571.438 465.497H872.586L871.017 448.676H569.932L571.438 465.497Z" fill="#182047"/>
<path d="M793.125 448.676H871.017L849.803 216.695H771.911L793.125 448.676Z" fill="#C6C6C6"/>
<path d="M747.872 465.497L747.181 456.71C745.486 438.382 729.293 423.507 710.966 423.507C692.638 423.507 679.144 438.382 680.838 456.71L681.654 465.497H747.872Z" fill="#182047"/>
<path d="M712.284 438.445L714.732 465.497H747.809L747.118 456.71C746.742 452.316 745.487 448.111 743.541 444.282C738.582 440.642 732.494 438.445 726.155 438.445H712.284V438.445Z" fill="#2E2E2D"/>
<path d="M696.717 484.632C685.312 473.736 684.142 456.451 694.104 446.023C704.065 435.596 721.386 435.976 732.791 446.871C744.196 457.767 745.366 475.052 735.405 485.48C725.443 495.907 708.122 495.527 696.717 484.632Z" fill="#575756"/>
<path d="M703.22 477.821C695.926 470.852 695.176 459.798 701.546 453.131C707.916 446.463 718.992 446.707 726.286 453.675C733.581 460.644 734.33 471.698 727.96 478.365C721.591 485.033 710.514 484.789 703.22 477.821Z" fill="#9D9D9C"/>
<path d="M721.196 456.145C721.636 457.526 721.887 458.969 721.95 460.476C722.075 467.38 717.117 472.966 710.275 473.531C708.894 473.657 707.513 473.531 706.195 473.28C705.066 473.029 704.375 474.41 705.254 475.226C708.141 478.05 712.033 479.87 716.175 479.808C723.958 479.808 729.732 473.343 728.979 465.56C728.54 461.292 726.28 457.526 723.079 454.952C722.075 454.199 720.82 455.015 721.196 456.145Z" fill="#DADADA"/>
<path d="M780.259 230.88H844.091V231.822H780.259V230.88Z" fill="#706F6F"/>
<path d="M844.548 231.343L864.438 448.661L863.5 448.747L843.611 231.429L844.548 231.343Z" fill="#706F6F"/>
<path d="M780.747 231.38L800.637 448.698L799.699 448.784L779.81 231.466L780.747 231.38Z" fill="#706F6F"/>
<path d="M812.648 231.361L832.537 448.68L831.599 448.766L811.71 231.447L812.648 231.361Z" fill="#706F6F"/>
<defs>
<linearGradient id="paint0_linear_63_711" x1="1509.92" y1="257.859" x2="-96.5801" y2="257.859" gradientUnits="userSpaceOnUse">
<stop stop-color="#BCE5F7"/>
<stop offset="0.3034" stop-color="#CDECF9"/>
<stop offset="0.6632" stop-color="#DAF2FB"/>
<stop offset="1" stop-color="#DEF4FC"/>
</linearGradient>
<linearGradient id="paint1_linear_63_711" x1="3.58733" y1="363.51" x2="990.281" y2="363.51" gradientUnits="userSpaceOnUse">
<stop stop-color="#26D5A9"/>
<stop offset="1" stop-color="#76EBD8"/>
</linearGradient>
<linearGradient id="paint2_linear_63_711" x1="189.298" y1="251.818" x2="98.9256" y2="95.2877" gradientUnits="userSpaceOnUse">
<stop stop-color="#EC7B35"/>
<stop offset="1" stop-color="#FA9C55"/>
</linearGradient>
</defs>
</svg>
