<svg width="917" height="600" viewBox="0 0 917 600" fill="none" xmlns="http://www.w3.org/2000/svg">
<mask id="mask0_13_8" style="mask-type:alpha" maskUnits="userSpaceOnUse" x="0" y="0" width="571" height="600">
<rect x="0.63855" width="570" height="600" fill="#C4C4C4"/>
</mask>
<g mask="url(#mask0_13_8)">
</g>
<g clip-path="url(#clip0_13_8)">
<path d="M584.751 284.106C563.585 284.106 546.38 301.308 546.38 322.469C546.38 343.63 563.585 360.832 584.751 360.832H604.346V284.106H584.751Z" fill="#3C3C3B"/>
<path d="M604.278 360.832C583.086 360.832 565.907 343.657 565.907 322.469C565.907 301.282 583.086 284.106 604.278 284.106C625.47 284.106 642.649 301.282 642.649 322.469C642.649 343.657 625.47 360.832 604.278 360.832Z" fill="#3C3C3B"/>
<path d="M604.278 347.043C590.703 347.043 579.699 336.041 579.699 322.469C579.699 308.897 590.703 297.895 604.278 297.895C617.853 297.895 628.858 308.897 628.858 322.469C628.858 336.041 617.853 347.043 604.278 347.043Z" fill="#575756"/>
<path d="M647.634 284.106C626.468 284.106 609.262 301.308 609.262 322.469C609.262 343.63 626.468 360.832 647.634 360.832H667.229V284.106H647.634Z" fill="#3C3C3B"/>
<path d="M296.829 284.106C275.664 284.106 258.458 301.308 258.458 322.469C258.458 343.63 275.664 360.832 296.829 360.832H316.425V284.106H296.829Z" fill="#3C3C3B"/>
<path d="M316.425 360.832C295.233 360.832 278.053 343.657 278.053 322.469C278.053 301.282 295.233 284.106 316.425 284.106C337.617 284.106 354.796 301.282 354.796 322.469C354.796 343.657 337.617 360.832 316.425 360.832Z" fill="#3C3C3B"/>
<path d="M316.425 347.043C302.85 347.043 291.845 336.041 291.845 322.469C291.845 308.897 302.85 297.895 316.425 297.895C330 297.895 341.004 308.897 341.004 322.469C341.004 336.041 330 347.043 316.425 347.043Z" fill="#575756"/>
<path d="M359.712 284.106C338.546 284.106 321.341 301.308 321.341 322.469C321.341 343.63 338.546 360.832 359.712 360.832H379.307V284.106H359.712Z" fill="#3C3C3B"/>
<path d="M250.606 315.575L223.842 313.663C216.263 313.117 210.392 306.837 210.392 299.26V195.843L222.476 59.3182C223.432 48.3963 232.513 40 243.506 40H470.934V315.575H250.606Z" fill="url(#paint0_linear_13_8)"/>
<path d="M299.356 40H645.859C655.554 40 664.157 46.1436 667.366 55.2907L721.236 211.611C723.147 217.209 726.22 222.397 730.112 226.834L738.168 235.981C741.787 240.145 743.835 245.538 743.835 251.067V311.206C743.835 317.213 738.919 322.128 732.911 322.128H425.94L306.388 313.732C298.809 313.185 292.938 306.905 292.938 299.328V195.843L288.5 59.4547C288.227 48.8058 291.026 40 299.356 40Z" fill="url(#paint1_linear_13_8)"/>
<path d="M332.675 315.575V309.772C332.675 284.037 353.567 263.149 379.307 263.149C405.048 263.149 425.94 284.037 425.94 309.772V322.128L332.675 315.575Z" fill="#1E2859"/>
<path d="M332.675 309.772V315.575L379.307 318.851V284.106H359.712C350.768 284.106 342.575 287.178 336.088 292.229C335.952 292.57 335.815 292.912 335.679 293.253C335.406 293.935 335.201 294.618 334.928 295.301C334.723 295.983 334.518 296.666 334.313 297.349C334.313 297.417 334.313 297.417 334.245 297.485C334.177 297.826 334.04 298.168 333.972 298.509C333.904 298.782 333.835 299.123 333.767 299.396C333.767 299.533 333.699 299.67 333.699 299.738C333.63 299.943 333.63 300.147 333.562 300.284C333.494 300.489 333.494 300.693 333.426 300.83C333.357 301.035 333.357 301.24 333.289 301.376C333.221 301.581 333.221 301.786 333.153 301.99C333.153 302.127 333.084 302.332 333.084 302.468C333.084 302.673 333.016 302.878 333.016 303.083C333.016 303.287 332.948 303.492 332.948 303.629C332.879 304.038 332.879 304.448 332.811 304.857C332.811 305.062 332.743 305.199 332.743 305.404C332.743 305.54 332.743 305.677 332.675 305.813C332.675 305.881 332.675 306.018 332.675 306.086C332.675 306.427 332.606 306.769 332.606 307.11C332.606 307.315 332.606 307.52 332.606 307.724V307.793C332.606 308.134 332.606 308.475 332.606 308.817C332.675 309.294 332.675 309.499 332.675 309.772Z" fill="#3C3C3B"/>
<path d="M379.307 360.832C358.115 360.832 340.936 343.657 340.936 322.469C340.936 301.282 358.115 284.106 379.307 284.106C400.499 284.106 417.679 301.282 417.679 322.469C417.679 343.657 400.499 360.832 379.307 360.832Z" fill="#575756"/>
<path d="M379.307 347.043C365.733 347.043 354.728 336.041 354.728 322.469C354.728 308.897 365.733 297.895 379.307 297.895C392.882 297.895 403.887 308.897 403.887 322.469C403.887 336.041 392.882 347.043 379.307 347.043Z" fill="#9D9D9C"/>
<path d="M369.066 309.021C368.588 310.933 368.451 312.981 368.588 315.097C369.271 324.79 376.986 332.64 386.681 333.459C388.661 333.596 390.573 333.528 392.416 333.118C393.987 332.777 395.079 334.688 393.987 335.848C390.368 339.876 385.043 342.333 379.239 342.333C368.315 342.265 359.371 333.255 359.439 322.264C359.507 316.257 362.17 310.933 366.403 307.315C367.632 306.291 369.475 307.451 369.066 309.021Z" fill="#DADADA"/>
<path d="M620.596 322.128V309.772C620.596 284.037 641.489 263.149 667.229 263.149C692.969 263.149 713.862 284.037 713.862 309.772V322.128H620.596Z" fill="#1E2859"/>
<path d="M620.596 309.772V322.128H667.229V284.106H647.634C638.689 284.106 630.496 287.178 624.01 292.229C621.825 297.622 620.596 303.56 620.596 309.772Z" fill="#3C3C3B"/>
<path d="M667.229 360.832C646.037 360.832 628.858 343.657 628.858 322.469C628.858 301.282 646.037 284.106 667.229 284.106C688.421 284.106 705.6 301.282 705.6 322.469C705.6 343.657 688.421 360.832 667.229 360.832Z" fill="#575756"/>
<path d="M667.229 347.043C653.654 347.043 642.65 336.041 642.65 322.469C642.65 308.897 653.654 297.895 667.229 297.895C680.804 297.895 691.809 308.897 691.809 322.469C691.809 336.041 680.804 347.043 667.229 347.043Z" fill="#9D9D9C"/>
<path d="M656.987 309.021C656.51 310.933 656.373 312.981 656.51 315.097C657.192 324.79 664.908 332.64 674.603 333.459C676.583 333.596 678.495 333.528 680.338 333.118C681.908 332.777 683.001 334.688 681.908 335.848C678.29 339.876 672.964 342.333 667.161 342.333C656.236 342.265 647.292 333.255 647.361 322.264C647.429 316.257 650.092 310.933 654.325 307.315C655.485 306.291 657.329 307.451 656.987 309.021Z" fill="#DADADA"/>
<path d="M589.189 73.5168H590.486V299.192H589.189V73.5168Z" fill="#30358C"/>
<path d="M602.913 218.301H628.721V211.406H602.913V218.301ZM627.492 217.004H604.21V212.635H627.492V217.004Z" fill="#30358C"/>
<path d="M667.229 254.548H706.488C709.356 254.548 711.677 252.227 711.677 249.36V217.618H710.38V249.36C710.38 251.545 708.605 253.251 706.488 253.251H667.161V254.548H667.229Z" fill="#30358C"/>
<path d="M449.905 299.806H615.407L615.475 299.26C619.367 274.208 642.103 254.548 667.229 254.548V253.251C654.53 253.251 642.103 258.098 632.135 266.904C622.576 275.368 616.295 286.563 614.315 298.509H449.905V299.806Z" fill="#30358C"/>
<path d="M431.129 299.806H449.905V298.509H432.222C430.242 286.563 423.892 275.3 414.402 266.904C404.501 258.098 392.007 253.251 379.307 253.251C371.387 253.251 362.511 255.845 354.318 260.555C346.603 264.992 340.39 270.795 337.113 276.529H293.006V277.826H337.864L338.068 277.484C341.209 271.819 347.354 266.016 355.001 261.647C363.058 257.006 371.729 254.48 379.376 254.48C404.501 254.48 427.237 274.139 431.129 299.192V299.806Z" fill="#30358C"/>
<path d="M219.95 72.8341V74.1311H673.852L673.374 72.8341H219.95Z" fill="#30358C"/>
<path d="M597.109 175.569V79.8651C597.109 76.3838 599.977 73.5168 603.459 73.5168H661.221C664.02 73.5168 666.478 75.2916 667.297 77.9538L707.854 207.516C709.287 212.089 705.327 216.594 700.616 215.639L617.046 199.665C605.439 197.481 597.109 187.378 597.109 175.569Z" fill="url(#paint2_linear_13_8)"/>
<path d="M603.459 100.89H624.625C627.629 100.89 630.223 102.938 630.838 105.873L650.911 197.071C651.867 201.508 647.975 205.536 643.469 204.717L617.046 199.665C605.507 197.481 597.109 187.31 597.109 175.569V107.238C597.109 103.757 599.977 100.89 603.459 100.89Z" fill="#367AD1"/>
<path d="M708.494 207.323L711.682 217.483L710.444 217.871L707.256 207.711L708.494 207.323Z" fill="#30358C"/>
<path d="M701.845 216.39C703.825 216.39 705.669 215.57 707.034 214.069C708.673 212.226 709.219 209.7 708.468 207.311L667.844 77.749C666.956 74.8137 664.225 72.8341 661.152 72.8341V74.1311C663.679 74.1311 665.864 75.7694 666.615 78.1586L707.239 207.72C707.854 209.632 707.376 211.748 706.078 213.25C704.713 214.751 702.733 215.434 700.753 215.093L617.182 199.051L616.909 200.28L700.48 216.321C700.958 216.39 701.367 216.39 701.845 216.39Z" fill="#30358C"/>
<path d="M680.065 217.687H690.307C691.809 217.687 693.038 216.458 693.038 214.956V178.368C693.038 176.866 691.809 175.637 690.307 175.637H680.065C678.563 175.637 677.334 176.866 677.334 178.368V214.956C677.334 216.458 678.563 217.687 680.065 217.687Z" fill="#C8E9F7"/>
<path d="M189.226 72.9024L198.375 195.843C198.853 202.055 199.058 208.335 199.058 214.615V292.434H162.666V205.195V72.9024H189.226Z" fill="#367AD1"/>
<path d="M193.732 72.9024L206.09 195.843C206.568 202.055 206.773 208.335 206.773 214.615V292.434H172.703V205.195L170.382 72.9024H193.732Z" fill="url(#paint3_linear_13_8)"/>
<path d="M215.512 195.843V292.434H287.885V195.843L284.608 79.046C284.54 75.6329 281.672 72.8341 278.258 72.8341H230.874C227.529 72.8341 224.798 75.3598 224.525 78.7047L215.512 195.843Z" fill="url(#paint4_linear_13_8)"/>
<path d="M314.172 72.9024L305.023 195.843C304.545 202.055 304.34 208.335 304.34 214.615V292.434H340.731V205.195V72.9024H314.172Z" fill="url(#paint5_linear_13_8)"/>
<path d="M309.665 72.9024L297.307 195.843C296.829 202.055 296.625 208.335 296.625 214.615V292.434H330.694V205.195L333.016 72.9024H309.665Z" fill="url(#paint6_linear_13_8)"/>
<path d="M732.57 292.161H743.835V303.629H732.57V292.161Z" fill="white"/>
<path d="M730.59 239.326L731.545 243.831C732.228 246.971 732.57 250.248 732.57 253.456V274.549C732.57 276.051 733.799 277.279 735.301 277.279H743.835V251.067C743.835 245.538 741.787 240.213 738.168 236.049H733.252C731.477 235.981 730.18 237.619 730.59 239.326Z" fill="#C8E9F7"/>
<path d="M700.07 276.597H743.835V277.894H701.299C700.889 277.484 700.48 277.006 700.07 276.597Z" fill="#30358C"/>
<path d="M2.14806 349.296C1.67012 346.156 2.35291 344.381 2.0798 341.241C1.87497 339.262 1.32881 335.985 0.85087 333.664C0.64604 332.708 0.0315342 329.841 2.62605 328.681C5.15229 327.589 7.13226 327.589 8.97573 326.565C11.024 325.473 14.0965 323.766 15.0524 323.152C17.9883 321.24 20.3097 322.128 22.0849 324.039C23.1773 325.2 22.8359 327.589 21.2655 328.954C19.4903 330.592 17.5786 331.753 15.8034 333.596C13.8234 335.644 11.8434 343.972 11.9117 347.317C11.9117 349.979 16.0766 356.464 13.8234 357.556C11.5703 358.58 6.85922 356.327 5.28886 354.962C3.58194 353.46 2.42117 351.139 2.14806 349.296Z" fill="#1E2859"/>
<path d="M111.049 345.678C110.571 339.125 111.868 337.145 116.443 338.374C118.696 338.989 120.266 341.173 120.813 342.402C122.11 345.269 123.339 347.112 126.275 349.501C128.869 351.549 132.01 352.846 135.151 354.006C137.472 354.894 143.002 355.508 143.685 357.965C144.436 360.832 138.564 360.832 134.741 360.832C129.757 360.832 123.407 358.443 120.266 358.102C118.559 357.897 116.033 358.238 113.985 357.965C110.23 357.488 109.82 356.532 110.162 353.528C110.23 351.617 111.254 348.272 111.049 345.678Z" fill="#1E2859"/>
<path d="M54.2432 153.588C54.5846 147.172 55.9501 145.738 62.0267 144.509C67.0792 143.486 74.8627 142.462 81.622 142.735C89.6786 143.008 100.671 144.441 104.017 145.602C109.342 147.513 110.64 150.517 110.913 153.452C111.391 158.025 108.045 205.058 105.928 212.703C104.29 218.779 100.125 221.236 93.6387 221.509C89.0642 221.714 71.0392 221.509 64.2115 221.1C56.9743 220.69 55.4039 216.594 55.2674 210.382C55.1308 200.416 54.0384 157.548 54.2432 153.588Z" fill="#5EDFEB"/>
<path d="M149.967 237.346C141.842 232.5 130.371 224.172 122.178 218.642C116.033 214.478 110.981 208.881 108.659 201.986C105.928 193.931 96.916 169.63 95.3456 161.575C94.7311 158.435 94.9359 154.339 95.9601 151.267C97.1208 147.923 101.013 144.851 104.358 145.67C112.62 147.718 113.644 154.681 115.077 162.053C116.853 171.2 119.515 189.904 120.744 196.184C121.564 200.485 124.841 206.219 128.05 209.086C133.649 214.069 151.196 228.745 152.971 230.315C155.634 232.704 156.112 234.479 155.087 236.663C154.336 238.097 152.22 238.711 149.967 237.346Z" fill="#5EDFEB"/>
<path d="M64.8942 166.899C67.8301 169.357 64.2797 176.866 65.5087 182.327C67.0791 189.358 64.5528 191.474 66.3963 195.638C67.2156 197.549 68.6494 197.549 69.4687 195.57C70.4246 193.18 70.9708 186.627 70.9708 183.965C71.0391 179.46 72.4046 171.2 73.7702 173.93C74.2481 174.818 74.3164 180.211 74.3164 181.985C74.3164 187.173 73.975 198.164 70.0149 203.693C68.2398 206.15 64.0749 210.656 58.4762 211.338C56.9741 211.543 56.0183 211.338 55.3355 210.997C55.3355 210.792 55.3355 210.656 55.3355 210.451C55.1989 203.283 54.5845 179.255 54.3796 164.715C57.6569 163.896 62.7776 165.125 64.8942 166.899Z" fill="#16BBD1"/>
<path d="M13.0724 320.763C17.9201 315.575 39.9734 290.795 42.6362 287.792C47.2107 282.604 50.01 275.709 50.2831 268.201C50.7611 256.323 51.9218 219.12 51.8535 214.888C51.8535 213.591 52.0583 210.587 52.468 209.973C53.5604 208.266 54.3114 210.041 56.8377 210.246C61.2074 210.587 63.7336 208.266 65.9184 206.56C72.2681 201.713 72.3364 193.931 72.8144 186.696C73.0875 182.668 73.3606 176.251 73.2923 172.77C73.0875 161.985 72.3364 155.773 69.3323 151.336C67.0109 147.991 64.3481 145.738 61.2756 145.192C60.3198 145.056 60.2515 144.851 60.7977 144.646C61.2756 144.509 64.0067 143.895 65.0308 143.895C68.035 143.895 71.5854 146.557 74.1799 150.653C76.8427 154.885 78.0034 162.053 78.4813 170.79C83.8752 170.79 91.7952 170.79 96.916 170.79C97.667 161.302 96.9159 150.585 95.6187 146.079C95.1407 144.305 94.7311 143.486 95.4822 143.554C96.1649 143.622 98.2132 143.895 98.7594 144.032C99.647 144.168 99.7836 144.305 100.193 145.602C102.037 151.131 102.242 165.602 102.173 173.384C102.173 177.617 102.446 192.498 102.515 197.344C102.583 200.758 102.446 203.966 103.88 207.174C104.768 209.222 106.679 210.314 108.045 211.133C109.342 211.884 109.615 212.976 109.752 214.478C110.093 220.281 110.162 228.131 111.117 231.407C112.278 235.571 113.234 238.78 115.214 243.763C118.901 253.115 123.066 260.897 126.548 269.839C129.552 277.757 129.142 284.788 128.118 293.048C126.889 302.81 123.134 333.118 122.315 340.695C121.973 344.108 117.058 344.313 113.78 344.586C106.202 345.337 107.362 340.559 107.362 336.19C107.294 331.616 107.704 312.776 107.772 307.656C107.908 297.28 106.406 293.116 104.222 286.973C101.081 278.099 90.9759 258.78 89.2007 255.231C88.5862 253.866 87.0841 250.384 84.6262 250.589C81.8269 250.794 81.7586 252.705 80.5979 255.913C79.1641 259.941 74.3847 276.392 72.6778 281.717C70.1516 289.43 66.055 293.799 63.6653 296.12C56.9742 302.673 33.0092 325.131 23.7236 333.323C21.334 335.439 19.8318 334.961 17.169 333.459C15.7352 332.64 11.9801 329.227 10.8194 327.179C9.31729 324.585 10.4097 323.698 13.0724 320.763Z" fill="#3448AD"/>
<path d="M81.7585 252.159C82.6461 249.975 83.1241 248.951 84.0799 246.835C84.4213 246.084 85.3772 245.333 86.4696 245.196C87.7669 244.991 95.3455 244.514 96.9841 244.514C100.261 250.521 97.7352 257.688 99.3738 262.876C100.398 266.221 103.88 268.61 104.972 271.341C106.816 275.983 106.406 279.942 107.089 284.857C107.704 289.225 110.776 292.639 111.527 296.803C112.415 301.99 109.684 306.769 109.41 312.981C109.137 318.442 109.684 323.63 109.615 326.155C109.615 328.271 108.591 332.162 107.226 333.255C107.294 326.224 107.567 312.093 107.635 307.793C107.772 297.417 106.27 293.253 104.085 287.109C100.944 278.235 90.8393 258.917 89.0641 255.367C88.4496 254.002 86.9475 250.521 84.4896 250.726C82.5778 250.862 81.9634 251.749 81.3489 253.319C81.5537 252.842 81.6902 252.432 81.7585 252.159Z" fill="#1F367A"/>
<path d="M139.042 287.451L140.545 267.518H134.741V287.451H139.042Z" fill="#E68922"/>
<path d="M91.9318 287.451L93.5022 267.518H87.6986V287.451H91.9318Z" fill="#E68922"/>
<path d="M95.0042 193.931H129.347C131.396 193.931 133.171 195.297 133.717 197.276L139.452 219.393H105.109L99.3738 197.276C98.8959 195.297 97.0524 193.931 95.0042 193.931Z" fill="#FFD980"/>
<path d="M97.7352 112.221C96.6428 107.853 91.2489 105.395 86.1965 105.054C80.9392 104.713 76.2281 107.511 74.3847 111.266C72.6778 114.815 72.1315 120.754 76.6378 129.697C77.7302 131.813 77.184 132.7 76.8426 135.021C76.7743 135.567 76.1598 138.434 75.955 139.39C75.204 142.598 73.7702 141.779 73.2923 142.939C71.5854 147.308 80.2564 153.725 87.4254 153.998C94.1165 154.271 93.9117 146.626 93.502 144.851C93.1607 143.486 91.9317 143.213 91.2489 142.803C90.0882 142.052 89.9517 141.438 90.02 140.072C90.02 139.799 90.0882 139.526 90.0882 139.185C90.2248 137.683 90.4296 133.929 91.3855 133.11C92.2048 132.427 92.6144 132.154 93.5703 131.471C94.3896 130.857 95.6869 128.536 96.0283 127.034C96.5745 124.918 96.4379 121.164 96.6427 118.979C96.7793 116.317 98.3497 114.884 97.7352 112.221Z" fill="#FEC1B5"/>
<path d="M94.1848 130.789C93.98 131.062 93.7752 131.335 93.502 131.54C92.6145 132.222 92.2048 132.495 91.3172 133.178C90.8393 133.588 90.4979 134.68 90.3613 135.908C90.02 135.977 89.4737 135.977 88.5861 135.84C85.7868 135.431 82.9875 132.359 82.0999 130.925C81.144 129.424 80.1199 125.806 80.5295 125.191C80.7343 124.85 82.6461 127.58 82.9192 127.99C85.7868 131.54 90.771 131.949 94.1848 130.789Z" fill="#E8988C"/>
<path d="M96.5745 119.048C96.5745 119.389 96.5063 119.73 96.5063 120.072C96.2332 119.184 96.438 118.092 95.7552 117.205C95.0724 116.317 94.0483 115.908 93.0241 115.703C90.4979 115.088 86.9475 115.361 84.353 115.225C82.2365 115.157 79.3006 114.679 81.1441 112.358C84.08 108.535 91.5221 107.58 95.7552 109.627C96.2331 109.832 96.6428 110.105 96.9842 110.447C97.3256 110.993 97.5304 111.607 97.7352 112.221C98.3497 114.884 96.7794 116.317 96.5745 119.048Z" fill="#E8988C"/>
<path d="M96.8476 107.102C94.8675 104.576 91.1806 102.255 86.8109 101.982C80.5978 101.573 73.8384 104.03 72.8825 107.921C72.5411 109.423 72.6777 110.856 71.7218 111.812C69.059 114.542 71.3121 120.276 72.1997 122.393C73.3604 125.328 76.2963 131.54 77.3205 131.13C77.935 130.857 78.8908 128.809 78.8226 127.922C78.686 126.01 78.6177 123.963 78.2764 122.051C78.0715 120.686 78.0715 120.618 78.686 119.525C78.8908 120.003 79.4371 121.505 79.4371 121.505L81.4171 120.618C83.0557 118.16 83.9433 114.406 83.6019 110.788C83.9433 110.31 84.6943 109.832 85.1723 109.627C88.3813 108.262 93.9117 109.627 96.0965 111.539C97.3255 112.631 97.3938 113.314 97.3938 114.269C97.3938 114.884 97.0524 116.385 97.5986 116.249C98.1448 116.112 98.8276 114.611 98.8959 112.494C99.1007 110.583 97.7352 108.194 96.8476 107.102Z" fill="#1E2859"/>
<path d="M79.4371 120.549C79.9833 122.529 79.3688 124.372 78.1399 124.645C76.9109 124.986 75.4771 123.621 74.9309 121.71C74.3847 119.73 74.9992 117.887 76.2282 117.614C77.5254 117.273 78.9592 118.57 79.4371 120.549Z" fill="#FEC1B5"/>
<path d="M78.6861 102.392C82.5096 101.231 89.0641 100.617 92.0683 102.46C96.2331 104.986 97.8035 107.443 98.691 110.583C98.8959 111.402 98.418 111.948 97.94 111.675C94.9359 110.31 91.4538 110.105 87.8351 110.788C85.1723 111.266 82.9875 112.426 80.6661 113.86C77.0475 116.044 74.8626 117.887 72.3364 120.754C71.4488 121.778 70.766 120.345 70.5612 119.525C68.9909 112.836 68.9908 105.259 78.6861 102.392Z" fill="#3448AD"/>
<path d="M81.417 112.972C81.6901 111.607 83.6019 108.467 88.8592 106.829C90.9075 106.214 94.253 104.44 96.3696 103.757C97.3937 103.416 97.5985 103.62 97.462 103.62C97.1206 103.689 96.3696 103.689 95.1406 104.371C93.0923 105.463 92.0681 107.17 90.8392 108.057C89.4054 109.081 88.1764 109.901 86.6743 110.651C85.1722 111.402 82.646 112.426 81.895 112.904C81.4853 113.109 81.3488 113.177 81.417 112.972Z" fill="#7AC9EB"/>
<path d="M81.5537 112.972C84.5579 111.266 89.2007 110.037 92.5462 106.214C95.7552 102.596 100.466 102.733 103.266 105.054C104.563 106.078 106.475 108.535 105.587 110.788C104.836 112.836 101.354 113.996 99.4422 114.201C98.4863 114.338 98.2815 114.201 97.9401 113.723C97.3256 113.041 96.3015 111.948 94.5263 111.266C91.9318 110.31 87.9034 110.788 85.3772 111.607C84.6262 111.88 82.7144 112.699 81.8951 113.177C81.4172 113.45 81.1441 113.245 81.5537 112.972Z" fill="#1F367A"/>
<path d="M94.3215 125.533C94.2532 125.874 93.1608 126.42 91.7952 126.215C90.4297 126.01 89.5421 124.918 89.6787 124.577C89.8152 124.304 90.6345 124.986 92.0001 125.191C93.3656 125.396 94.3898 125.191 94.3215 125.533Z" fill="white"/>
<path d="M135.629 172.907C136.448 170.244 138.906 168.401 141.705 168.401H287.953V219.393H139.52L133.785 197.276C133.239 195.297 131.464 193.931 129.416 193.931H129.279L135.629 172.907Z" fill="url(#paint7_linear_13_8)"/>
<path d="M97.8034 219.393H287.885V243.49H97.7351C95.2089 243.49 93.2289 241.442 93.2289 238.984V223.967C93.2971 221.441 95.2771 219.393 97.8034 219.393Z" fill="url(#paint8_linear_13_8)"/>
<path d="M86.4012 193.931H95.0041C97.0524 193.931 98.8275 195.297 99.3738 197.276L105.109 219.393H101.763V243.49H287.885V267.586H101.763H86.333C83.8067 267.586 81.8268 265.538 81.8268 263.081V198.505C81.895 195.911 83.875 193.931 86.4012 193.931Z" fill="#FEB840"/>
<path d="M94.0482 221.441C93.5703 222.124 93.2972 223.011 93.2972 223.898V238.916C93.2972 241.442 95.3455 243.421 97.8034 243.421H287.885V254.889H81.8268V237.278L94.0482 221.441Z" fill="url(#paint9_linear_13_8)"/>
<path d="M86.4013 193.453H95.0041H128.869L135.151 172.77C136.038 169.903 138.633 167.923 141.637 167.923H287.885V168.879H141.637C139.042 168.879 136.789 170.517 136.038 173.043L129.893 193.453C131.942 193.658 133.717 195.092 134.195 197.14L134.263 197.413H133.307C132.829 195.638 131.259 194.409 129.415 194.409H129.279H97.94C98.8276 195.092 99.5103 196.047 99.8517 197.208L105.519 218.984H108.796H138.906H139.862H149.694H287.885V219.939H97.7352C95.4821 219.939 93.7068 221.782 93.7068 223.967V238.984C93.7068 241.237 95.5503 243.012 97.7352 243.012V243.968C95.0041 243.968 92.751 241.715 92.751 238.984V223.967C92.751 221.236 95.0041 218.984 97.7352 218.984H104.495L98.8959 197.481C98.4179 195.706 96.8476 194.477 95.0041 194.477H86.4013C84.1481 194.477 82.373 196.32 82.373 198.505V263.081C82.373 265.334 84.2164 267.108 86.4013 267.108V268.064C83.6702 268.064 81.4171 265.811 81.4171 263.081V198.505C81.4171 195.706 83.6702 193.453 86.4013 193.453Z" fill="white"/>
<path d="M97.8034 219.393H287.885V224.103H97.7351C95.2089 224.103 93.2289 226.151 93.2289 228.609V224.103V223.898C93.2971 221.441 95.2771 219.393 97.8034 219.393Z" fill="#FFD980"/>
<path d="M80.871 243.08C74.5213 236.937 59.8419 222.874 53.8335 216.048C49.259 210.997 44.3431 205.945 44.9576 197.617C45.8452 186.491 47.9617 166.763 49.5321 158.64C50.2831 154.749 50.6928 149.22 54.0384 147.445C56.906 145.875 58.6129 144.714 60.6612 145.943C67.4206 149.902 66.1233 156.797 65.3723 163.418C64.4164 172.087 61.9584 189.289 61.617 195.16C61.4122 199.187 63.6654 205.604 65.7819 208.949C69.3323 214.546 83.6021 235.025 84.8994 236.732C87.0159 239.599 87.0842 241.237 85.787 243.217C85.1042 244.241 82.578 244.787 80.871 243.08Z" fill="#5EDFEB"/>
<path d="M81.3489 237.756C82.3047 236.937 84.2165 236.8 85.4454 237.619C86.9475 238.643 90.2248 240.554 92.1365 241.715C93.9117 242.807 95.7552 242.944 97.8035 242.671C100.466 242.329 102.105 242.397 102.924 242.944C103.812 243.558 106.475 244.718 104.358 245.606C102.173 246.562 96.6428 248.678 94.6628 249.36C93.7069 249.702 92.2048 250.043 91.1124 249.77C88.9275 249.155 86.8109 248.405 85.5137 247.858C84.0116 247.312 82.6461 244.991 81.3489 243.558C79.9833 241.988 79.3688 239.462 81.3489 237.756Z" fill="#FEC1B5"/>
</g>
<defs>
<linearGradient id="paint0_linear_13_8" x1="340.703" y1="434.944" x2="340.703" y2="77.9732" gradientUnits="userSpaceOnUse">
<stop stop-color="#30358C"/>
<stop offset="0.236" stop-color="#303990"/>
<stop offset="0.4805" stop-color="#31469D"/>
<stop offset="0.7289" stop-color="#335AB1"/>
<stop offset="0.9785" stop-color="#3677CE"/>
<stop offset="1" stop-color="#367AD1"/>
</linearGradient>
<linearGradient id="paint1_linear_13_8" x1="611.523" y1="16.6626" x2="405.915" y2="372.859" gradientUnits="userSpaceOnUse">
<stop stop-color="#7AC9EB"/>
<stop offset="0.2201" stop-color="#76C5EA"/>
<stop offset="0.4481" stop-color="#6CB8E6"/>
<stop offset="0.6798" stop-color="#5AA4DF"/>
<stop offset="0.9126" stop-color="#4187D5"/>
<stop offset="1" stop-color="#367AD1"/>
</linearGradient>
<linearGradient id="paint2_linear_13_8" x1="652.642" y1="215.259" x2="652.642" y2="38.715" gradientUnits="userSpaceOnUse">
<stop stop-color="#30358C"/>
<stop offset="0.236" stop-color="#303990"/>
<stop offset="0.4805" stop-color="#31469D"/>
<stop offset="0.7289" stop-color="#335AB1"/>
<stop offset="0.9785" stop-color="#3677CE"/>
<stop offset="1" stop-color="#367AD1"/>
</linearGradient>
<linearGradient id="paint3_linear_13_8" x1="188.594" y1="72.9122" x2="188.594" y2="292.434" gradientUnits="userSpaceOnUse">
<stop stop-color="#C8E9F7"/>
<stop offset="0.2215" stop-color="#C4E7F6"/>
<stop offset="0.451" stop-color="#B7E2F4"/>
<stop offset="0.6843" stop-color="#A3DAF1"/>
<stop offset="0.9186" stop-color="#86CEED"/>
<stop offset="1" stop-color="#7AC9EB"/>
</linearGradient>
<linearGradient id="paint4_linear_13_8" x1="306.043" y1="281.972" x2="141.06" y2="-3.8474" gradientUnits="userSpaceOnUse">
<stop stop-color="#1E2859"/>
<stop offset="0.1478" stop-color="#202E62"/>
<stop offset="0.3887" stop-color="#253F7A"/>
<stop offset="0.6929" stop-color="#2D5AA2"/>
<stop offset="1" stop-color="#367AD1"/>
</linearGradient>
<linearGradient id="paint5_linear_13_8" x1="322.526" y1="292.434" x2="322.526" y2="72.9122" gradientUnits="userSpaceOnUse">
<stop stop-color="#30358C"/>
<stop offset="1" stop-color="#367AD1"/>
</linearGradient>
<linearGradient id="paint6_linear_13_8" x1="314.807" y1="72.9122" x2="314.807" y2="361.897" gradientUnits="userSpaceOnUse">
<stop stop-color="#C8E9F7"/>
<stop offset="0.2215" stop-color="#C4E7F6"/>
<stop offset="0.451" stop-color="#B7E2F4"/>
<stop offset="0.6843" stop-color="#A3DAF1"/>
<stop offset="0.9186" stop-color="#86CEED"/>
<stop offset="1" stop-color="#7AC9EB"/>
</linearGradient>
<linearGradient id="paint7_linear_13_8" x1="117.35" y1="159.388" x2="280.935" y2="218.033" gradientUnits="userSpaceOnUse">
<stop stop-color="#FEB840"/>
<stop offset="0.3685" stop-color="#FEB43D"/>
<stop offset="0.7497" stop-color="#FFA734"/>
<stop offset="1" stop-color="#FF9B2B"/>
</linearGradient>
<linearGradient id="paint8_linear_13_8" x1="89.8594" y1="218.771" x2="279.761" y2="242.165" gradientUnits="userSpaceOnUse">
<stop stop-color="#FEB840"/>
<stop offset="0.2503" stop-color="#FEAC37"/>
<stop offset="0.6315" stop-color="#FF9F2E"/>
<stop offset="1" stop-color="#FF9B2B"/>
</linearGradient>
<linearGradient id="paint9_linear_13_8" x1="336.95" y1="238.185" x2="130.917" y2="238.185" gradientUnits="userSpaceOnUse">
<stop stop-color="#FF9B2B"/>
<stop offset="0.1907" stop-color="#F79528"/>
<stop offset="0.6022" stop-color="#EA8C23"/>
<stop offset="1" stop-color="#E68922"/>
</linearGradient>
<clipPath id="clip0_13_8">
<rect width="1066" height="328" fill="white" transform="translate(0.63855 40)"/>
</clipPath>
</defs>
</svg>
