<svg width="572" height="349" viewBox="0 0 572 349" fill="none" xmlns="http://www.w3.org/2000/svg">
<g clip-path="url(#clip0_63_852)">
<g opacity="0.85">
<path opacity="0.85" d="M26.0086 198.294C32.9593 162.299 71.7095 139.505 112.501 147.407C153.293 155.309 180.749 190.869 173.798 226.863C170.757 242.624 161.634 255.823 148.949 265.028H56.3745C33.7413 249.701 21.0562 224.128 26.0086 198.294Z" fill="url(#paint0_linear_63_852)"/>
<path opacity="0.85" d="M234.66 101.947C251.602 57.3562 295.261 29.0906 347.218 23.1422C368.417 8.5535 394.091 0 421.764 0C489.577 0 545.443 51.2776 552.611 117.144C539.1 58.8758 486.796 15.4137 424.37 15.4137C409.47 15.4137 395.178 17.8885 381.797 22.4475C400.782 23.8369 420.287 28.0485 439.532 35.3429C491.227 54.9682 529.456 92.5254 546.225 134.424C566.078 139.374 576.417 171.938 569.423 208.15C562.298 245.012 539.839 271.715 519.291 267.72C518.161 267.503 517.075 267.199 516.033 266.808C474.85 302.108 407.776 312.181 343.525 287.78C256.902 254.868 208.16 171.634 234.66 101.947Z" fill="url(#paint1_linear_63_852)"/>
<path opacity="0.85" d="M306.817 25.4C269.153 37.2533 238.613 61.3507 223.017 95.8686C192.348 163.776 230.099 248.572 308.077 295.899C221.801 250.57 177.23 163.385 207.943 95.4778C224.972 57.7904 261.811 33.5627 306.817 25.4Z" fill="url(#paint2_linear_63_852)"/>
</g>
<path d="M416.16 265.028C482.259 265.028 535.842 211.473 535.842 145.409C535.842 79.3459 482.259 25.7908 416.16 25.7908C350.061 25.7908 296.478 79.3459 296.478 145.409C296.478 211.473 350.061 265.028 416.16 265.028Z" fill="url(#paint3_linear_63_852)"/>
<path d="M427.412 265.028C493.51 265.028 547.094 211.473 547.094 145.409C547.094 79.3459 493.51 25.7908 427.412 25.7908C361.313 25.7908 307.729 79.3459 307.729 145.409C307.729 211.473 361.313 265.028 427.412 265.028Z" fill="url(#paint4_linear_63_852)"/>
<path d="M427.411 259.036C490.199 259.036 541.099 208.164 541.099 145.409C541.099 82.655 490.199 31.7825 427.411 31.7825C364.624 31.7825 313.724 82.655 313.724 145.409C313.724 208.164 364.624 259.036 427.411 259.036Z" fill="url(#paint5_linear_63_852)"/>
<path d="M313.724 145.409C313.724 207.151 363.031 257.43 424.414 258.993C485.841 257.43 535.104 207.151 535.104 145.409C535.104 83.668 485.797 33.3891 424.414 31.826C362.987 33.4325 313.724 83.668 313.724 145.409Z" fill="white"/>
<path d="M313.724 145.409C313.724 173.328 323.803 198.901 340.528 218.7C360.511 240.714 389.356 254.521 421.416 254.521C477.413 254.521 523.548 212.405 529.847 158.131C526.242 165.99 521.593 173.501 515.859 180.579C481.149 223.303 420.113 231.205 379.582 198.293C339.051 165.339 334.316 104.031 369.026 61.3073C375.803 52.9275 383.622 45.937 392.093 40.2926C371.98 45.8936 354.169 57.0957 340.528 72.162C323.803 91.9175 313.724 117.491 313.724 145.409Z" fill="#C8E9F7"/>
<mask id="mask0_63_852" style="mask-type:alpha" maskUnits="userSpaceOnUse" x="403" y="36" width="128" height="110">
<path d="M418.767 135.119L403.345 37.7743C409.209 36.7757 415.248 36.2981 421.417 36.2981C481.714 36.2981 530.586 85.1442 530.586 145.409H421.417L418.767 135.119Z" fill="url(#paint6_linear_63_852)"/>
</mask>
<g mask="url(#mask0_63_852)">
<path d="M418.767 135.119L403.345 37.7743C409.209 36.7757 415.248 36.2981 421.417 36.2981C481.714 36.2981 530.586 85.1442 530.586 145.409H421.417L418.767 135.119Z" fill="url(#paint7_linear_63_852)"/>
<path d="M421.382 147.085L505.529 147.085L505.529 143.699L421.382 143.699L421.382 147.085Z" fill="#30358C"/>
<path d="M405.94 69.7933L418.809 145.868L424.035 144.985L411.166 68.9103L405.94 69.7933Z" fill="#30358C"/>
<path d="M513.144 146.999L526.133 146.999L526.133 143.872L513.144 143.872L513.144 146.999Z" fill="#30358C"/>
<path d="M501.662 100.955L512.91 94.4639L511.346 91.7566L500.098 98.2477L501.662 100.955Z" fill="#30358C"/>
<path d="M468.631 66.7736L475.125 55.531L472.417 53.9679L465.922 65.2105L468.631 66.7736Z" fill="#30358C"/>
<path d="M422.965 53.7111L422.965 40.7289L419.837 40.7289L419.837 53.7111L422.965 53.7111Z" fill="#30358C"/>
</g>
<path d="M314.767 268.936C446.1 268.936 552.568 267.186 552.568 265.028C552.568 262.87 446.1 261.12 314.767 261.12C183.433 261.12 76.9659 262.87 76.9659 265.028C76.9659 267.186 183.433 268.936 314.767 268.936Z" fill="#367AD1"/>
<path d="M298.867 219.525C286.312 219.525 277.059 229.729 278.276 242.277C279.448 254.825 290.613 265.028 303.168 265.028H314.81L310.509 219.525H298.867Z" fill="#333332"/>
<path d="M329.926 258.727C338.206 250.051 337.192 235.652 327.661 226.566C318.13 217.48 303.691 217.147 295.411 225.823C287.132 234.499 288.146 248.898 297.677 257.984C307.208 267.07 321.647 267.403 329.926 258.727Z" fill="#333332"/>
<path d="M323.734 252.827C329.033 247.274 328.375 238.05 322.264 232.225C316.153 226.399 306.904 226.177 301.605 231.73C296.305 237.282 296.964 246.506 303.075 252.332C309.186 258.158 318.435 258.379 323.734 252.827Z" fill="#575756"/>
<path d="M128.097 219.525C115.542 219.525 106.289 229.729 107.506 242.277C108.678 254.825 119.843 265.028 132.398 265.028H143.997L139.696 219.525H128.097Z" fill="#333332"/>
<path d="M159.114 258.728C167.394 250.052 166.38 235.653 156.848 226.567C147.317 217.481 132.879 217.148 124.599 225.824C116.319 234.499 117.334 248.899 126.865 257.985C136.396 267.071 150.834 267.404 159.114 258.728Z" fill="#333332"/>
<path d="M152.921 252.827C158.22 247.275 157.562 238.051 151.451 232.225C145.34 226.399 136.09 226.177 130.791 231.73C125.492 237.282 126.15 246.506 132.261 252.332C138.372 258.158 147.622 258.38 152.921 252.827Z" fill="#575756"/>
<path d="M165.414 219.525C152.859 219.525 143.606 229.729 144.822 242.277C145.995 254.825 157.16 265.028 169.714 265.028H181.357L177.013 219.525H165.414Z" fill="#333332"/>
<path d="M336.227 219.525C323.672 219.525 314.419 229.729 315.636 242.277C316.809 254.825 327.973 265.028 340.528 265.028H352.17L347.87 219.525H336.227Z" fill="#333332"/>
<path d="M87.5661 185.615C89.6513 182.967 91.1283 179.884 91.9971 176.584L115.195 83.8851C116.542 78.4577 121.32 74.8105 127.098 74.8105H248.301L264.157 242.147H91.2586C87.6964 242.147 84.5251 239.237 84.1776 235.677L80.7891 199.987C80.485 196.687 81.3973 193.517 83.3088 191.086L87.5661 185.615Z" fill="url(#paint8_linear_63_852)"/>
<path d="M132.267 191.043L136.525 185.659C138.61 183.01 140.087 179.927 140.956 176.628L164.154 83.9285C165.5 78.5012 170.279 74.854 176.057 74.854H367.114C373.544 74.854 379.365 79.8037 380.451 86.2297L394.178 167.293L400 228.643C400.434 233.115 397.306 236.849 392.832 237.197L322.369 242.19H140.174C136.612 242.19 133.44 239.281 133.093 235.721L129.704 200.03C129.4 196.644 130.313 193.474 132.267 191.043Z" fill="url(#paint9_linear_63_852)"/>
<path d="M377.28 238.195L376.932 234.722C375.499 219.439 361.945 207.064 346.653 207.064C331.362 207.064 320.154 219.439 321.587 234.722L322.282 242.06L377.28 238.195Z" fill="#1E2859"/>
<path d="M206.857 242.103L206.162 234.765C204.728 219.482 191.175 207.108 175.883 207.108C160.592 207.108 149.384 219.482 150.817 234.765L151.512 242.103H206.857Z" fill="#1E2859"/>
<path d="M150.817 234.765L151.512 242.103H179.185L177.056 219.569H165.414C160.114 219.569 155.422 221.392 151.86 224.388C150.817 227.558 150.47 231.075 150.817 234.765Z" fill="#333332"/>
<path d="M196.434 258.735C204.714 250.059 203.7 235.66 194.169 226.573C184.637 217.487 170.199 217.154 161.919 225.83C153.639 234.506 154.654 248.905 164.185 257.991C173.716 267.078 188.155 267.41 196.434 258.735Z" fill="#575756"/>
<path d="M190.241 252.835C195.54 247.283 194.882 238.059 188.771 232.233C182.66 226.407 173.41 226.186 168.111 231.738C162.812 237.291 163.47 246.515 169.581 252.34C175.692 258.166 184.942 258.388 190.241 252.835Z" fill="#9D9D9C"/>
<path d="M172.364 234.288C172.19 235.417 172.19 236.632 172.408 237.891C173.363 243.623 178.403 248.312 184.18 248.79C185.353 248.876 186.483 248.833 187.569 248.572C188.481 248.399 189.22 249.484 188.655 250.179C186.7 252.567 183.746 254.043 180.271 254C173.754 253.956 167.977 248.616 167.412 242.103C167.108 238.543 168.411 235.373 170.713 233.246C171.322 232.725 172.495 233.376 172.364 234.288Z" fill="#EDEDED"/>
<path d="M139.348 231.118H132.658L132.05 224.345H138.697L139.348 231.118Z" fill="white"/>
<path d="M195.779 176.41H211.114L211.505 180.535H196.17L195.779 176.41ZM210.376 177.149H196.605L196.865 179.754H210.637L210.376 177.149Z" fill="#30358C"/>
<path d="M152.034 202.028H175.362V201.246H152.034C150.73 201.246 149.601 200.204 149.47 198.901L147.689 180.101L146.951 180.188L148.732 198.988C148.862 200.682 150.339 202.028 152.034 202.028Z" fill="#30358C"/>
<path d="M208.638 228.86H306.817V228.079H209.246C205.337 213.012 190.48 201.246 175.318 201.246V202.028C190.219 202.028 204.859 213.707 208.551 228.6L208.638 228.86Z" fill="#30358C"/>
<path d="M306.817 228.86H317.981V228.513C318.894 213.664 331.231 202.028 346.132 202.028C356.167 202.028 367.809 209.235 371.936 215.704L372.067 215.878H398.696V215.097H372.501C370.242 211.666 366.202 208.236 361.38 205.588C356.254 202.766 350.823 201.246 346.132 201.246C338.616 201.246 331.492 204.112 326.062 209.322C320.892 214.315 317.764 220.958 317.243 228.079H306.773V228.86H306.817Z" fill="#30358C"/>
<path d="M212.548 155.179L207.161 98.4303C206.944 96.3462 205.119 94.6529 203.034 94.6529H168.802C167.151 94.6529 165.805 95.7384 165.457 97.3014L148.602 174.109C147.993 176.845 150.6 179.493 153.38 178.929L202.079 169.463C208.812 168.161 213.2 162.169 212.548 155.179Z" fill="#1E2859"/>
<path d="M321.587 234.765L322.282 242.103H349.955L347.826 219.569H336.184C330.884 219.569 326.192 221.392 322.63 224.388C321.631 227.558 321.24 231.075 321.587 234.765Z" fill="#3C3C3B"/>
<path d="M367.246 258.735C375.526 250.059 374.512 235.66 364.981 226.574C355.449 217.487 341.011 217.154 332.731 225.83C324.451 234.506 325.466 248.905 334.997 257.991C344.528 267.078 358.967 267.411 367.246 258.735Z" fill="#575756"/>
<path d="M361.054 252.833C366.353 247.281 365.695 238.057 359.584 232.231C353.473 226.405 344.223 226.184 338.924 231.736C333.625 237.289 334.283 246.513 340.394 252.339C346.505 258.164 355.755 258.386 361.054 252.833Z" fill="#9D9D9C"/>
<path d="M343.134 234.288C342.961 235.417 342.961 236.632 343.178 237.891C344.134 243.623 349.173 248.312 354.951 248.79C356.123 248.876 357.253 248.833 358.339 248.572C359.251 248.399 359.99 249.484 359.425 250.179C357.47 252.567 354.516 254.043 351.041 254C344.524 253.956 338.747 248.616 338.182 242.103C337.878 238.543 339.181 235.373 341.484 233.246C342.135 232.725 343.308 233.376 343.134 234.288Z" fill="#EDEDED"/>
<path d="M95.5156 179.016H136.221L157.333 94.6529H116.628L95.5156 179.016Z" fill="white"/>
<path d="M124.665 231.118H132.658L132.05 224.345H124.057L124.665 231.118Z" fill="#C8E9F7"/>
<path d="M83.7429 231.118H91.7362L91.0846 224.345H83.0913L83.7429 231.118Z" fill="white"/>
<path d="M82.2658 215.487H88.6518C89.5641 215.487 90.2157 214.749 90.1288 213.881L89.2165 204.155C89.0428 202.375 88.7821 200.595 88.3477 198.858L87.0879 193.387C86.7838 192.041 85.524 191.042 84.1773 191.042H83.3084C81.3536 193.517 80.4847 196.687 80.7888 199.943L82.2658 215.487Z" fill="white"/>
<path d="M211.522 94.6121L210.743 94.6857L223.413 228.519L224.192 228.445L211.522 94.6121Z" fill="#30358C"/>
<path d="M382.536 94.2621H111.502V95.0437H382.536V94.2621Z" fill="#30358C"/>
<path d="M148.266 174.039L146.946 180.062L147.71 180.23L149.03 174.207L148.266 174.039Z" fill="#30358C"/>
<path d="M136.916 192.996L136.612 195.645C136.394 197.512 136.351 199.422 136.525 201.376L137.698 213.881C137.785 214.793 137.133 215.487 136.221 215.487H131.181L129.704 199.943C129.4 196.644 130.313 193.474 132.224 191.042H135.135C136.177 191.042 137.046 191.954 136.916 192.996Z" fill="white"/>
<path d="M90.2592 215.487H123.188L121.885 201.506H88.9125L90.2592 215.487Z" fill="#1E2859"/>
<path d="M123.883 198.076L126.968 192.909C127.663 191.737 128.922 191.042 130.356 191.042H132.267C130.313 193.517 129.444 196.687 129.748 199.943L131.225 215.487H124.839C123.927 215.487 123.145 214.749 123.058 213.881L122.276 205.631C122.015 202.939 122.58 200.291 123.883 198.076Z" fill="#C8E9F7"/>
<path d="M393.831 162.213L394.135 167.206L398.696 215.487H389.009L384.23 164.904C384.1 163.428 385.186 162.213 386.663 162.213H393.831Z" fill="#E87F79"/>
<path d="M391.702 192.736H396.524L398.697 215.487H393.831L391.702 192.736Z" fill="#FFAFA3"/>
<path d="M386.446 192.736L387.184 192.649L384.534 164.861C384.491 164.253 384.665 163.689 385.056 163.255C385.447 162.82 386.011 162.603 386.62 162.603H393.787V161.822H386.62C385.794 161.822 385.056 162.126 384.491 162.734C383.97 163.341 383.709 164.123 383.796 164.948L386.446 192.736Z" fill="white"/>
<path d="M103.683 179.016H136.221L153.25 110.892H121.363C119.713 110.892 118.366 111.977 118.018 113.54L103.683 179.016Z" fill="#A0D9F2"/>
<path d="M153.38 178.929L164.632 176.758C165.109 175.108 165.327 173.284 165.153 171.417L160.331 120.617L148.602 174.066C148.037 176.845 150.643 179.493 153.38 178.929Z" fill="url(#paint10_linear_63_852)"/>
<path d="M152.642 179.406C152.902 179.406 153.163 179.363 153.424 179.32L202.122 169.854L201.992 169.116L153.293 178.581C152.12 178.798 150.86 178.408 149.992 177.496C149.123 176.584 148.732 175.368 148.993 174.24L165.805 97.4318C166.109 96.0424 167.325 95.0871 168.802 95.0871V94.3056C166.977 94.3056 165.457 95.4779 165.066 97.2581L148.254 174.066C147.95 175.455 148.384 176.931 149.47 178.017C150.339 178.885 151.512 179.406 152.642 179.406Z" fill="#30358C"/>
<path d="M95.5156 179.406H132.398C134.874 179.406 136.916 177.843 137.524 175.499L157.724 94.7398L156.986 94.5661L136.785 175.325C136.264 177.322 134.526 178.668 132.398 178.668H95.5156V179.406Z" fill="white"/>
<path d="M165.674 180.144H159.592C158.68 180.144 157.898 179.406 157.811 178.538L155.769 156.829C155.683 155.917 156.334 155.222 157.246 155.222H163.328C164.241 155.222 165.023 155.96 165.109 156.829L167.151 178.538C167.238 179.406 166.586 180.144 165.674 180.144Z" fill="#C8E9F7"/>
<path d="M121.885 201.116H88.9125V201.897H121.885V201.116Z" fill="white"/>
<path d="M447.351 301.804C447.351 303.367 435.752 304.626 421.416 304.626C407.081 304.626 395.482 303.367 395.482 301.804C395.482 300.241 407.081 298.982 421.416 298.982C435.752 298.982 447.351 300.241 447.351 301.804Z" fill="#1E2859"/>
<path d="M438.402 279.617C441.791 275.709 443.833 270.586 443.833 265.028C443.833 252.654 433.797 242.624 421.417 242.624C409.036 242.624 399 252.654 399 265.028C399 270.629 401.042 275.709 404.431 279.617L421.417 301.804L438.402 279.617Z" fill="url(#paint11_linear_63_852)"/>
<path d="M421.417 277.924C428.542 277.924 434.319 272.15 434.319 265.028C434.319 257.906 428.542 252.133 421.417 252.133C414.291 252.133 408.514 257.906 408.514 265.028C408.514 272.15 414.291 277.924 421.417 277.924Z" fill="white"/>
<path d="M33.0462 305.321C50.9444 305.321 65.4538 303.746 65.4538 301.804C65.4538 299.861 50.9444 298.287 33.0462 298.287C15.1479 298.287 0.63855 299.861 0.63855 301.804C0.63855 303.746 15.1479 305.321 33.0462 305.321Z" fill="#1E2859"/>
<path d="M54.2892 274.103C58.5031 269.196 61.1096 262.814 61.1096 255.823C61.1096 240.366 48.5549 227.818 33.0896 227.818C17.6243 227.818 5.06958 240.366 5.06958 255.823C5.06958 262.814 7.63265 269.196 11.89 274.103L33.0896 301.804L54.2892 274.103Z" fill="url(#paint12_linear_63_852)"/>
<path d="M39.2332 270.756C47.4791 267.343 51.3948 257.894 47.9792 249.652C44.5635 241.411 35.11 237.497 26.864 240.911C18.6181 244.325 14.7024 253.774 18.118 262.015C21.5337 270.257 30.9873 274.17 39.2332 270.756Z" fill="white"/>
<path d="M422.759 327.439C427.282 326.705 430.354 322.446 429.62 317.925C428.886 313.404 424.623 310.333 420.1 311.067C415.577 311.801 412.505 316.061 413.239 320.582C413.973 325.103 418.235 328.173 422.759 327.439Z" fill="#FF9B2B"/>
<path d="M34.3836 327.45C38.9071 326.716 41.9789 322.456 41.2448 317.935C40.5106 313.414 36.2486 310.344 31.7252 311.077C27.2017 311.811 24.1299 316.071 24.864 320.592C25.5982 325.113 29.8602 328.183 34.3836 327.45Z" fill="#FF9B2B"/>
<path d="M397.176 317.348H421.417V321.907H399.131L397.176 317.348Z" fill="#FF9B2B"/>
<path d="M367.896 317.348H382.536L384.491 321.907H369.851L367.896 317.348Z" fill="#FF9B2B"/>
<path d="M104.986 317.348C105.725 317.348 107.028 317.217 107.636 316.262C108.201 315.394 108.157 314.091 107.506 312.572L100.034 295.508C98.7738 292.599 98.8173 289.69 100.251 287.519C101.598 285.478 103.9 284.349 106.724 284.349H131.92C137.307 284.349 143.302 288.431 145.561 293.685L164.892 337.798C166.456 341.358 170.8 344.398 174.363 344.398H221.28C222.018 344.398 223.322 344.267 223.93 343.312C224.495 342.444 224.451 341.141 223.8 339.622L211.115 310.574C209.855 307.665 209.898 304.756 211.332 302.585C212.678 300.545 214.981 299.416 217.805 299.416H272.715C278.102 299.416 284.097 303.497 286.356 308.751L287.225 310.748C288.789 314.308 293.133 317.348 296.695 317.348H323.933L325.931 321.907H296.695C291.308 321.907 285.313 317.825 283.054 312.572L282.185 310.574C280.622 307.014 276.277 303.975 272.715 303.975H217.805C217.066 303.975 215.763 304.105 215.155 305.06C214.59 305.929 214.633 307.231 215.285 308.751L227.97 337.798C229.23 340.707 229.186 343.616 227.753 345.787C226.406 347.828 224.104 348.957 221.28 348.957H174.363C168.976 348.957 162.981 344.875 160.722 339.622L141.477 295.508C139.913 291.948 135.569 288.908 132.007 288.908H106.811C106.072 288.908 104.769 289.039 104.161 289.994C103.596 290.862 103.639 292.165 104.291 293.685L111.763 310.748C113.023 313.657 112.979 316.566 111.546 318.737C110.199 320.778 107.897 321.907 105.073 321.907H33.0463V317.348H104.986Z" fill="#FF9B2B"/>
<path d="M338.616 317.348H353.256L355.211 321.907H340.571L338.616 317.348Z" fill="#FF9B2B"/>
<path d="M173.494 140.894C174.189 145.149 178.142 156.221 178.707 159.694C179.271 163.124 178.794 169.159 179.098 170.419C179.315 171.244 180.227 171.547 180.749 171.591C182.53 171.678 193.694 170.636 199.038 170.115L202.035 169.55C202.6 169.42 203.165 169.29 203.686 169.116C203.99 168.682 203.99 168.074 203.816 167.249C203.295 164.991 202.904 163.472 202.426 161.127C201.905 158.826 201.427 156.959 201.34 153.876C201.21 150.663 201.427 141.719 200.297 138.202C199.863 136.856 199.168 135.119 198.169 134.164C196.996 132.992 194.476 132.818 192.956 132.731C189.611 132.514 185.875 132.948 182.617 133.643C181.009 133.99 176.144 135.727 174.623 136.595C173.103 137.377 173.146 138.723 173.494 140.894Z" fill="white"/>
<path d="M194.389 169.029C194.737 169.594 195.128 170.028 195.606 170.375C196.909 170.245 198.082 170.158 199.038 170.028L202.035 169.463C202.6 169.333 203.165 169.203 203.686 169.029C203.99 168.595 203.99 167.987 203.816 167.162C203.295 164.904 202.904 163.385 202.426 161.04C201.905 158.739 201.427 156.872 201.34 153.789C201.297 152.574 201.297 150.489 201.253 148.188C198.169 147.103 195.302 149.534 195.953 152.877C196.822 157.436 195.649 161.691 194.433 163.124C193.129 164.601 192.521 165.99 194.389 169.029Z" fill="#DADADA"/>
<path d="M178.837 117.969C179.358 115.754 181.704 114.365 184.875 114.148C187.395 114.018 189.741 115.407 190.61 117.317C191.435 119.141 191.696 122.18 189.524 126.739C189.002 127.825 190.045 130.951 190.219 131.472C190.653 132.601 190.87 132.601 191.088 133.209C191.913 135.423 187.786 139.027 184.311 139.201C181.053 139.331 181.183 135.423 181.357 134.511C181.53 133.817 182.139 133.686 182.443 133.469C183.007 133.078 183.051 132.775 183.051 132.08C183.051 131.95 183.051 131.776 183.007 131.602C182.921 130.864 182.834 128.91 182.356 128.52C181.965 128.172 181.748 128.042 181.313 127.695C180.922 127.391 179.836 126.349 179.662 125.567C179.402 124.482 179.489 122.571 179.358 121.442C179.315 120.096 178.533 119.358 178.837 117.969Z" fill="#FEC1B5"/>
<path d="M180.922 127.304C181.009 127.434 181.183 127.608 181.313 127.738C181.748 128.085 181.965 128.216 182.356 128.563C182.616 128.78 182.703 129.344 182.79 129.866C182.964 129.909 183.659 129.952 184.137 129.822C185.484 129.475 186.396 128.52 186.917 127.521C187.352 126.739 187.786 124.872 187.569 124.568C187.439 124.395 186.57 125.697 186.439 125.914C184.875 127.912 182.443 128.129 180.922 127.304Z" fill="#E8988C"/>
<path d="M184.571 112.585C187.569 112.368 190.87 113.627 191.348 115.624C191.522 116.362 191.435 117.144 191.913 117.621C193.216 119.011 192.13 121.963 191.696 123.049C191.131 124.568 189.698 127.695 189.22 127.478C188.916 127.347 188.438 126.305 188.481 125.828C188.568 124.829 188.568 123.787 188.742 122.832C188.872 122.137 188.829 122.137 188.525 121.529C188.394 121.79 188.134 122.528 188.134 122.528L187.178 122.05C186.396 120.791 185.962 118.881 186.135 117.014C186.005 116.753 185.614 116.493 185.397 116.406C183.789 115.798 182.486 112.759 184.571 112.585Z" fill="#1E2859"/>
<path d="M188.177 122.094C187.916 123.092 188.221 124.047 188.829 124.221C189.437 124.395 190.132 123.7 190.393 122.701C190.653 121.703 190.349 120.748 189.741 120.574C189.089 120.4 188.394 121.095 188.177 122.094Z" fill="#FEC1B5"/>
<path d="M188.525 112.498C186.657 111.934 183.485 111.586 182.008 112.541C180.01 113.844 179.228 115.103 178.794 116.71C178.707 117.1 178.924 117.404 179.141 117.274C180.575 116.579 182.312 116.449 184.05 116.796C185.353 117.057 186.396 117.621 187.525 118.36C189.307 119.488 190.349 120.4 191.566 121.92C192 122.441 192.348 121.703 192.434 121.312C193.26 117.839 193.216 113.974 188.525 112.498Z" fill="#FF9B2B"/>
<path d="M187.221 117.882C187.091 117.187 186.179 115.581 183.616 114.756C182.617 114.452 181.009 113.54 179.967 113.149C179.445 112.976 179.358 113.062 179.445 113.106C179.619 113.149 179.967 113.149 180.575 113.497C181.574 114.061 182.052 114.929 182.66 115.364C183.355 115.885 183.963 116.319 184.702 116.71C185.397 117.1 186.657 117.621 187.048 117.839C187.178 117.969 187.265 118.012 187.221 117.882Z" fill="#FFB35C"/>
<path d="M187.135 117.882C185.658 117.014 183.442 116.362 181.791 114.452C180.227 112.585 177.664 112.672 176.274 113.887C175.666 114.408 174.71 115.668 175.145 116.84C175.536 117.882 177.23 118.446 178.142 118.577C178.576 118.62 178.707 118.577 178.881 118.36C179.185 118.012 179.663 117.448 180.531 117.1C181.791 116.579 184.05 116.84 185.267 117.274C185.658 117.404 186.57 117.838 186.961 118.056C187.178 118.142 187.352 118.012 187.135 117.882Z" fill="#E68922"/>
<path d="M180.401 124.699C180.444 124.872 181.053 125.133 181.791 125.003C182.53 124.872 183.007 124.308 182.964 124.178C182.921 124.047 182.399 124.308 181.661 124.438C180.879 124.525 180.358 124.525 180.401 124.699Z" fill="white"/>
<path d="M165.109 156.785C165.023 155.873 164.241 155.179 163.328 155.179H158.028C160.505 152.009 165.544 144.932 168.715 141.502C171.409 138.593 173.624 135.64 177.49 136.335C179.185 136.639 179.749 139.504 179.619 141.328C179.489 142.891 178.75 145.54 177.664 146.799C175.579 149.274 169.627 154.875 165.283 158.739L165.109 156.785Z" fill="white"/>
<path d="M151.729 159.955C153.076 159.434 154.64 158.478 155.856 157.48L156.551 164.731C154.64 165.469 152.642 165.947 150.73 166.164C150.6 166.164 150.47 166.207 150.339 166.207L151.729 159.955Z" fill="white"/>
<path d="M176.448 174.457L202.078 169.463C202.687 169.333 203.251 169.203 203.816 169.029C203.642 168.856 203.425 168.725 203.208 168.552C201.644 167.596 199.472 167.466 198.038 166.294C196.692 165.208 195.693 163.819 195.302 162.169C194.476 158.739 193.651 152.27 193.303 148.536C193.043 145.757 192.825 141.198 194.129 137.551C194.78 135.77 196.301 133.903 196.822 133.382C197.17 133.035 197.17 132.948 196.865 132.861C196.431 132.775 195.606 132.644 195.171 132.601C194.693 132.514 194.52 132.775 194.172 133.122C193.26 134.034 191.913 136.205 191.348 138.289C190.653 141.024 190.219 144.194 190.436 147.754C188.09 147.928 184.007 148.275 181.704 148.449C180.314 143.065 179.576 138.202 180.097 134.815C180.184 134.294 180.227 134.034 179.923 134.164C179.532 134.294 178.707 134.555 178.229 134.728C177.794 134.902 177.664 135.553 177.621 135.77C176.926 138.332 178.533 146.408 179.185 149.664C179.706 152.356 180.314 158.348 180.444 160.563C180.531 162.56 180.792 164.514 180.227 166.467C179.967 167.336 179.228 168.682 178.663 169.29C177.708 170.332 176.708 170.592 176.578 171.808C176.535 172.242 176.491 173.284 176.448 174.457Z" fill="#FF9B2B"/>
<path d="M209.594 164.036C209.116 159.303 205.901 146.017 205.119 142.327C204.685 140.243 203.86 136.161 201.21 134.685C200.254 134.121 198.299 133.426 197.734 133.296C197.039 133.122 196.779 133.556 196.735 133.643C195.779 134.772 195.215 136.161 194.606 137.985C193.868 140.156 194.52 143.89 195.302 146.972C196.431 151.445 198.429 157.306 199.211 160.085C200.254 163.819 197.039 164.21 195.997 164.427C192.565 165.122 177.925 167.336 175.796 167.77C173.45 168.248 173.277 169.507 173.363 170.592C173.407 171.2 174.276 171.851 175.536 171.851C179.054 171.851 195.953 171.982 201.383 171.851C205.728 171.634 210.376 171.33 209.594 164.036Z" fill="white"/>
<path d="M166.196 168.291C166.847 167.77 167.499 167.249 167.846 166.989C168.237 166.685 168.889 166.294 169.454 166.294C170.583 166.294 171.669 166.381 172.364 166.467C173.146 166.511 174.102 167.466 174.971 168.031C175.84 168.595 176.535 169.767 175.84 170.853C175.492 171.417 174.667 171.634 173.928 171.504C172.972 171.33 171.061 170.853 169.975 170.505C168.976 170.202 168.324 170.288 167.412 170.723C167.064 170.896 166.717 171.026 166.456 171.113L166.196 168.291Z" fill="#FEC1B5"/>
</g>
<defs>
<linearGradient id="paint0_linear_63_852" x1="-1.82773" y1="194.71" x2="566.534" y2="270.075" gradientUnits="userSpaceOnUse">
<stop stop-color="#76EBD8"/>
<stop offset="1" stop-color="#C8E9F7"/>
</linearGradient>
<linearGradient id="paint1_linear_63_852" x1="11.1425" y1="96.8973" x2="579.504" y2="172.262" gradientUnits="userSpaceOnUse">
<stop stop-color="#76EBD8"/>
<stop offset="1" stop-color="#C8E9F7"/>
</linearGradient>
<linearGradient id="paint2_linear_63_852" x1="7.94769" y1="120.985" x2="576.31" y2="196.35" gradientUnits="userSpaceOnUse">
<stop stop-color="#76EBD8"/>
<stop offset="1" stop-color="#C8E9F7"/>
</linearGradient>
<linearGradient id="paint3_linear_63_852" x1="356.323" y1="249.022" x2="475.917" y2="41.7677" gradientUnits="userSpaceOnUse">
<stop stop-color="#30358C"/>
<stop offset="1" stop-color="#367AD1"/>
</linearGradient>
<linearGradient id="paint4_linear_63_852" x1="547.062" y1="145.422" x2="307.721" y2="145.422" gradientUnits="userSpaceOnUse">
<stop stop-color="#7AC9EB"/>
<stop offset="0.2201" stop-color="#76C5EA"/>
<stop offset="0.4481" stop-color="#6CB8E6"/>
<stop offset="0.6798" stop-color="#5AA4DF"/>
<stop offset="0.9126" stop-color="#4187D5"/>
<stop offset="1" stop-color="#367AD1"/>
</linearGradient>
<linearGradient id="paint5_linear_63_852" x1="370.538" y1="243.842" x2="484.153" y2="46.9504" gradientUnits="userSpaceOnUse">
<stop stop-color="#30358C"/>
<stop offset="1" stop-color="#367AD1"/>
</linearGradient>
<linearGradient id="paint6_linear_63_852" x1="396.344" y1="62.7979" x2="511.601" y2="140.386" gradientUnits="userSpaceOnUse">
<stop stop-color="white"/>
<stop offset="1"/>
</linearGradient>
<linearGradient id="paint7_linear_63_852" x1="396.344" y1="62.7979" x2="511.601" y2="140.386" gradientUnits="userSpaceOnUse">
<stop stop-color="#76EBD8"/>
<stop offset="1" stop-color="white"/>
</linearGradient>
<linearGradient id="paint8_linear_63_852" x1="174.42" y1="242.085" x2="174.42" y2="74.7712" gradientUnits="userSpaceOnUse">
<stop stop-color="#30358C"/>
<stop offset="1" stop-color="#367AD1"/>
</linearGradient>
<linearGradient id="paint9_linear_63_852" x1="332.012" y1="53.7903" x2="208.126" y2="280.208" gradientUnits="userSpaceOnUse">
<stop stop-color="#7AC9EB"/>
<stop offset="0.2201" stop-color="#76C5EA"/>
<stop offset="0.4481" stop-color="#6CB8E6"/>
<stop offset="0.6798" stop-color="#5AA4DF"/>
<stop offset="0.9126" stop-color="#4187D5"/>
<stop offset="1" stop-color="#367AD1"/>
</linearGradient>
<linearGradient id="paint10_linear_63_852" x1="138.492" y1="254.153" x2="179.532" y2="122.76" gradientUnits="userSpaceOnUse">
<stop stop-color="#30358C"/>
<stop offset="0.0214593" stop-color="#30388F"/>
<stop offset="0.2711" stop-color="#3355AC"/>
<stop offset="0.5195" stop-color="#3569C0"/>
<stop offset="0.764" stop-color="#3676CD"/>
<stop offset="1" stop-color="#367AD1"/>
</linearGradient>
<linearGradient id="paint11_linear_63_852" x1="437.351" y1="292.615" x2="380.086" y2="193.376" gradientUnits="userSpaceOnUse">
<stop stop-color="#EC7B35"/>
<stop offset="1" stop-color="#FA9C55"/>
</linearGradient>
<linearGradient id="paint12_linear_63_852" x1="52.9883" y1="290.315" x2="-18.5931" y2="166.266" gradientUnits="userSpaceOnUse">
<stop stop-color="#EC7B35"/>
<stop offset="1" stop-color="#FA9C55"/>
</linearGradient>
<clipPath id="clip0_63_852">
<rect width="571" height="349" fill="white" transform="translate(0.63855)"/>
</clipPath>
</defs>
</svg>
